<svg xmlns="http://www.w3.org/2000/svg" width="32" height="32" viewBox="0 0 32 32"><path d="M8.309 2.969c-.874 0-1.583.708-1.582 1.582v1.63q.142.196.337.339c-1.25 1.64-2.534 3.269-3.816 4.918-.174.223-.244.356-.34.501a1.58 1.58 0 0 0-.074 1.612q-.05.045-.096.095c0 .528-.046 1.125.018 1.842.096 1.077.8 1.828 1.658 2.358a2 2 0 0 0-.133.133v6.757c-.27.095-.546.098-.765.32a2.1 2.1 0 0 0-.58 1.339c-.018.274-.005.475-.002.605.007.424.154 1.008.584 1.44.43.43.994.575 1.408.591.196.008.345.004.443.004h21.272q.168.002.423-.004c.403-.01.948-.143 1.374-.543.425-.4.599-.96.625-1.377.014-.24.01-.438.01-.59-.005-.44-.158-1.056-.62-1.5-.23-.221-.478-.196-.736-.28v-6.655a2 2 0 0 0-.084-.113c.756-.438 1.365-1.096 1.54-2.086.157-.877.103-1.6.128-2.153a1.6 1.6 0 0 0-.201-.533c.115-.237.17-.5.158-.763l.002-.002c-.013-.082-.04-.39-.328-.762l-.002-.002c-1.328-1.709-2.656-3.42-3.994-5.127q.21-.151.363-.363V4.55c0-.874-.708-1.583-1.582-1.582Z" style="fill:#f2f2f2;stroke-width:.139515"/><path d="M13.652 24.18v-4.918H7.8v4.918zm10.594 1.83c.023-.082.053-.141.053-.2.002-1.29.054-2.58-.014-3.865-.088-1.65-1.443-2.867-2.988-2.789-1.628.082-2.807 1.346-2.812 3.02q-.002 1.695.001 3.388c0 .151.015.302.023.446zm-18.357.03v-8.065c1.17-.001 2.075-.443 2.7-1.404 1.357 1.889 3.738 1.796 4.989.007.599.873 1.407 1.387 2.48 1.375 1.047-.012 1.845-.516 2.43-1.38 1.38 1.897 3.726 1.775 4.917.065.396.328.756.729 1.202.965.449.238.984.313 1.554.48v7.955h.848c.33 0 .505.16.508.494.001.16.005.32-.005.478-.018.285-.178.431-.462.439-.128.004-.255.002-.383.002H5.397c-.128 0-.256.003-.383-.002-.307-.012-.468-.17-.474-.48-.003-.16-.009-.319.001-.478.018-.28.166-.442.454-.45.269-.006.538 0 .894 0" style="fill:#a0892c;fill-opacity:1;fill-rule:nonzero;stroke:none;stroke-width:.139515"/><path d="M23.743 4.548V6.18H8.335V4.55z" style="fill:navy;fill-opacity:1;fill-rule:nonzero;stroke:none;stroke-width:.139515"/><path d="M4.253 12.81c.12-.18.188-.299.27-.405 1.31-1.684 2.633-3.359 3.924-5.057.254-.335.518-.451.92-.433.648.03 1.298.008 2.006.008-.07.174-.105.291-.162.396-.934 1.72-1.867 3.442-2.812 5.156-.074.136-.231.318-.353.321-1.236.023-2.473.014-3.793.014m16.452-5.885c.81 0 1.573-.007 2.335.008a.53.53 0 0 1 .359.175c1.444 1.839 2.878 3.686 4.312 5.533.017.022.014.059.03.128-.121.015-.238.041-.356.041-1.05.004-2.1-.004-3.15.007-.267.002-.438-.068-.572-.318-.963-1.793-1.94-3.58-2.91-5.368-.022-.038-.022-.088-.048-.206" style="fill:#a00;fill-opacity:1;fill-rule:nonzero;stroke:none;stroke-width:.139515"/><path d="M17.872 6.923c.565 0 1.12-.01 1.674.009.096.003.233.105.277.197.9 1.857 1.788 3.72 2.683 5.59-.065.04-.102.083-.138.083-1.002.006-2.004.004-3.006.009-.196 0-.334-.043-.38-.266-.38-1.818-.765-3.636-1.147-5.454-.006-.029.012-.061.037-.168m-3.598 0-1.25 5.866h-3.44c.041-.134.062-.252.111-.355.813-1.712 1.636-3.419 2.44-5.134.134-.287.3-.403.62-.384.473.028.95.007 1.52.007" style="fill:#999;fill-opacity:1;fill-rule:nonzero;stroke:none;stroke-width:.139515"/><path d="m14.318 12.786.86-5.86c.509 0 .997-.002 1.486 0 .253 0 .25.202.276.37l.492 3.35c.08.55.164 1.101.243 1.652.022.152.03.305.047.488z" style="fill:#a00;fill-opacity:1;fill-rule:nonzero;stroke:none;stroke-width:.139515"/><path d="M22.781 13.653c0 .536.01 1.011-.002 1.487-.024.951-.713 1.684-1.657 1.777-.886.088-1.753-.526-1.893-1.446-.088-.584-.016-1.192-.016-1.818z" style="fill:#999;fill-opacity:1;fill-rule:nonzero;stroke:none;stroke-width:.139515"/><path d="M4.347 13.643h3.601c-.013.71.107 1.405-.115 2.083-.253.77-1.07 1.277-1.866 1.185-.855-.099-1.536-.73-1.61-1.566-.05-.55-.01-1.106-.01-1.702m9.849.009h3.595c0 .637.068 1.26-.016 1.861-.115.822-.915 1.416-1.74 1.41-.853-.006-1.61-.573-1.743-1.405-.095-.6-.067-1.22-.096-1.866m13.551.009c-.03.66.008 1.316-.104 1.946-.143.804-1.002 1.37-1.819 1.313-.871-.061-1.606-.715-1.674-1.554-.045-.552-.009-1.11-.009-1.705z" style="fill:#a00;fill-opacity:1;fill-rule:nonzero;stroke:none;stroke-width:.139515"/><path d="M9.296 13.65h3.589c.009.718.12 1.431-.13 2.12-.28.77-1.12 1.258-1.898 1.14-.855-.128-1.5-.78-1.554-1.626-.035-.534-.007-1.071-.007-1.633" style="fill:#999;fill-opacity:1;fill-rule:nonzero;stroke:none;stroke-width:.139515"/><path d="M19.89 22.996c-.227.164-.341.306-.479.333-.228.045-.386-.12-.336-.336.029-.125.206-.288.33-.3.118-.012.254.15.486.303" style="fill:#1c1c32;fill-opacity:1;fill-rule:nonzero;stroke:none;stroke-width:.139515"/></svg>