<svg xmlns="http://www.w3.org/2000/svg" width="32" height="32" viewBox="0 0 32 32"><rect width="18.311" height="13.913" x="6.463" y="16.067" ry="2.378" style="fill:#ccc;fill-opacity:.967532;stroke-width:1.8;stroke-linecap:round;stroke-linejoin:round"/><ellipse cx="15.574" cy="13.554" rx="13.24" ry="12.387" style="fill:#ccc;fill-opacity:.967532;stroke-width:1.8;stroke-linecap:round;stroke-linejoin:round"/><circle cx="15.664" cy="14.011" r="10.637" style="fill:#2ad4ff;fill-opacity:.967532;stroke-width:1.8;stroke-linecap:round;stroke-linejoin:round"/><rect width="13.913" height="11.4" x="8.677" y="16.679" ry="1.948" style="fill:#f9f9f9;fill-opacity:.967532;stroke-width:1.8;stroke-linecap:round;stroke-linejoin:round"/><path d="M25.117 12.98H22.16v-.113a12.2 12.2 0 0 0-.914-4.685q0-.17 1.701-.493 2.17 2.655 2.17 5.178zm-4.34-5.803q-.212-.664-1.127-1.84h.107q.977.474 2.276 1.422 0 .21-1.255.418m.128 5.804-4.677-.018V8.599h.445q1.637 0 3.318-.303.915 2.257.914 4.267zm-4.679-8.46h.34q1.297 0 2.957 2.75c0 .152-1.168.291-3.295.418zm-1.15 3.169q-1.977-.114-3.19-.304h-.128q1.596-2.864 2.978-2.864h.34zm0 5.292h-4.679q0-2.333.915-4.685 1.722.303 3.296.303h.467zM9.25 6.873a10.3 10.3 0 0 1 2.276-1.536h.128q-.978 1.366-1.149 1.84-.17 0-1.255-.304m-.106 5.994v.114H6.165q0-2.429 2.17-5.292 1.085.19 1.595.398h.128q-.915 2.808-.915 4.78m17.229-3.054q-3.574-7.017-10.614-7.018-2.744 0-5.36 1.214Q4.23 7.537 4.23 13.588q0 3.622 2.85 7.131h.234v-2.56q-1.149-2.675-1.149-3.965V14.1h2.978v.19q0 1.63.34 1.63h.787l.234-.094-.106-1.024V14.1h4.68v1.82l1.148.002V14.1h4.68v.698l-.048 1.06.153.063h.809q.34 0 .34-1.12V14.1h2.957q0 1.65-1.149 4.059v2.56h.128q2.956-3.204 2.956-7.036 0-1.65-.68-3.87" style="fill:#1a1a1a;fill-opacity:1;fill-rule:nonzero;stroke:none;stroke-width:.00454414"/><rect width="13.823" height="3.411" x="8.886" y="17.324" ry="0" style="fill:#0000d4;fill-opacity:.967532;stroke-width:1.80001;stroke-linecap:round;stroke-linejoin:round"/><path d="M9.829 16.486c-.964 0-1.748.72-1.748 1.607v9.05c0 .885.784 1.606 1.748 1.606h11.614c.964 0 1.748-.72 1.748-1.607v-9.05c0-.885-.784-1.606-1.748-1.606zm.377 1.141h10.86c.481 0 .873.36.873.802v1.95H9.333v-1.95c0-.443.392-.802.873-.802m-.873 3.892h12.606v5.287c0 .442-.392.802-.873.802h-10.86c-.481 0-.873-.36-.873-.802z" style="fill:#000;fill-opacity:1;fill-rule:nonzero;stroke:none;stroke-width:.000546638"/><path d="M10.999 18.336c-.358 0-.649.268-.649.597s.291.597.649.597.649-.268.649-.597-.291-.597-.649-.597m1.811 0c-.357 0-.648.268-.648.597s.291.597.649.597.649-.268.649-.597-.291-.597-.65-.597m1.813 0c-.358 0-.649.268-.649.597s.291.597.649.597.649-.268.649-.597-.291-.597-.65-.597" style="fill:#f9f9f9;fill-opacity:1;fill-rule:nonzero;stroke:none;stroke-width:.000546638"/></svg>