<svg xmlns="http://www.w3.org/2000/svg" width="32" height="32" viewBox="0 0 32 32"><g style="stroke-width:1.09306"><path d="M4.578 1.264C1.803 1.264-.48 3.547-.48 6.322v19.356c0 2.775 2.282 5.06 5.058 5.06h22.846c2.776 0 5.058-2.285 5.058-5.06V6.322c0-2.775-2.283-5.058-5.058-5.058z" style="fill:#ccc;stroke-width:.00117597" transform="matrix(.92142 0 0 .90835 1.326 2.256)"/><path d="M2.861 4H29.14v6.432H2.861z" style="fill:navy;stroke-width:1.83466;stroke-dasharray:5.50396,5.50396" transform="matrix(.92142 0 0 .90835 1.326 2.256)"/><path d="M2.721 11.784h26.418v15.611H2.721z" style="fill:#f9f9f9;stroke-width:2.86573;stroke-dasharray:8.59719,8.59719" transform="matrix(.92142 0 0 .90835 1.326 2.256)"/><path d="M4.577 4.605c-.946 0-1.716.77-1.716 1.717v19.356c0 .947.77 1.717 1.716 1.717h22.846c.946 0 1.716-.77 1.716-1.717V6.322c0-.947-.77-1.717-1.716-1.717zm22.846 24.511H4.577a3.44 3.44 0 0 1-3.438-3.438V6.322a3.44 3.44 0 0 1 3.438-3.438h22.846a3.44 3.44 0 0 1 3.438 3.438v19.356a3.44 3.44 0 0 1-3.438 3.438" style="fill:#000;fill-opacity:1;fill-rule:nonzero;stroke:none;stroke-width:.00117597" transform="matrix(.92142 0 0 .90835 1.326 2.256)"/><path d="M2.86 10.432h26.28v-4.11a1.72 1.72 0 0 0-1.717-1.717H4.577c-.946 0-1.716.77-1.716 1.717zM30 12.154H2a.86.86 0 0 1-.86-.861V6.322a3.44 3.44 0 0 1 3.437-3.438h22.846a3.44 3.44 0 0 1 3.438 3.438v4.97a.86.86 0 0 1-.861.862" style="fill:#000;fill-opacity:1;fill-rule:nonzero;stroke:none;stroke-width:.00117597" transform="matrix(.92142 0 0 .90835 1.326 2.256)"/><path d="M6.139 6.243c-.704 0-1.277.572-1.277 1.276s.573 1.276 1.277 1.276a1.277 1.277 0 0 0 0-2.552m3.564 0a1.277 1.277 0 0 0 0 2.552 1.277 1.277 0 0 0 0-2.552m3.564 0a1.277 1.277 0 0 0 0 2.552 1.277 1.277 0 0 0 0-2.552" style="fill:#f9f9f9;fill-opacity:1;fill-rule:nonzero;stroke:none;stroke-width:.00117597" transform="matrix(.92142 0 0 .90835 1.326 2.256)"/></g></svg>