<svg xmlns="http://www.w3.org/2000/svg" width="32" height="32" viewBox="0 0 32 32"><path d="m24.123 4.176-5.615 1.549a1 1 0 0 0-.64-.641H11.13a.996.996 0 0 0-.87.87.996.996 0 0 0-.87-.87H2.656a.996.996 0 0 0-.996.996v23.363a.996.996 0 0 0 .996.996h6.735a.996.996 0 0 0 .87-.869.996.996 0 0 0 .87.87h6.736a.996.996 0 0 0 .996-.997V14.12l4.332 15.592a.996.996 0 0 0 1.225.693l6.492-1.79a.996.996 0 0 0 .693-1.23L25.348 4.87a.996.996 0 0 0-1.225-.693" style="fill:#ccc;fill-opacity:.967532;stroke-width:1.78816;stroke-linecap:round;stroke-linejoin:round" transform="matrix(1 0 0 1.01329 0 -.404)"/><g style="stroke-width:1.07363"><path d="M-665.05 403.759h-5.053a.632.632 0 1 1 0-1.263h5.052a.631.631 0 1 1 0 1.263m0 3.052h-5.053a.632.632 0 1 1 0-1.263h5.052a.632.632 0 0 1 0 1.263m0 3.053h-5.053a.632.632 0 0 1 0-1.263h5.052a.631.631 0 1 1 0 1.263m0 3.052h-5.053a.631.631 0 1 1 0-1.263h5.052a.631.631 0 1 1 0 1.263m-2.527 13.263a2.526 2.526 0 1 1 0-5.053 2.526 2.526 0 0 1 0 5.053m-4.737-29.706v32.972h9.474v-32.972z" style="fill:green;fill-opacity:1;fill-rule:nonzero;stroke:none;stroke-width:.0358154" transform="matrix(.71102 0 0 .70858 480.514 -275.138)"/><path d="M-653.13 403.759h-5.053a.632.632 0 0 1 0-1.263h5.053a.631.631 0 1 1 0 1.263m0 3.052h-5.053a.632.632 0 0 1 0-1.263h5.053a.632.632 0 0 1 0 1.263m0 3.053h-5.053a.632.632 0 0 1 0-1.263h5.053a.632.632 0 0 1 0 1.263m0 3.052h-5.053a.631.631 0 1 1 0-1.263h5.053a.631.631 0 1 1 0 1.263m-2.526 13.263a2.526 2.526 0 1 1 0-5.053 2.526 2.526 0 0 1 0 5.053m-4.737-29.706v32.972h9.473v-32.972z" style="fill:#520;fill-opacity:1;fill-rule:nonzero;stroke:none;stroke-width:.0358154" transform="matrix(.71102 0 0 .70858 480.514 -275.138)"/><path d="M-638.383 425.032a2.526 2.526 0 1 1-1.349-4.869 2.526 2.526 0 0 1 1.349 4.87m-5.975-12.107a.631.631 0 0 1-.337-1.217l4.87-1.349a.632.632 0 0 1 .337 1.218zm-1.591-3.382a.63.63 0 0 1 .44-.777l4.869-1.348a.63.63 0 1 1 .337 1.217l-4.87 1.348a.63.63 0 0 1-.777-.44m-.815-2.941a.63.63 0 0 1 .44-.778l4.869-1.348a.632.632 0 0 1 .337 1.217l-4.87 1.349a.63.63 0 0 1-.777-.44m-.815-2.942a.63.63 0 0 1 .44-.777l4.87-1.349a.631.631 0 1 1 .336 1.217l-4.869 1.349a.63.63 0 0 1-.777-.44m5.832-8.52-9.13 2.528 8.8 31.776 9.13-2.528z" style="fill:navy;fill-opacity:1;fill-rule:nonzero;stroke:none;stroke-width:.0358154" transform="matrix(.71102 0 0 .70858 480.514 -275.138)"/></g></svg>