<?xml version="1.0" encoding="UTF-8" standalone="no"?>
<!-- Created with Inkscape (http://www.inkscape.org/) -->

<svg
   width="400"
   height="170"
   viewBox="0 0 400 170"
   version="1.1"
   id="svg1"
   xmlns="http://www.w3.org/2000/svg"
   xmlns:svg="http://www.w3.org/2000/svg">
  <defs
     id="defs1" />
  <g
     id="layer1"
     transform="translate(276.32373,-43.496094)">
    <text
       xml:space="preserve"
       style="font-style:normal;font-weight:normal;font-size:10.9325px;line-height:0%;font-family:sans-serif;letter-spacing:0px;word-spacing:0px;fill:#000080;fill-opacity:1;stroke:none;stroke-width:0.911038px;stroke-linecap:butt;stroke-linejoin:miter;stroke-opacity:1"
       x="-96.21595"
       y="190.84975"
       id="text4185-9-2-3"
       transform="scale(1.4532778,0.68809969)"><tspan
         id="tspan4187-3-0-3"
         x="-96.21595"
         y="190.84975"
         style="font-style:normal;font-variant:normal;font-weight:normal;font-stretch:normal;font-size:206.617px;line-height:1.25;font-family:'Cry Uncial';-inkscape-font-specification:'Cry Uncial';fill:#000080;fill-opacity:1;stroke-width:0.911038px"> </tspan></text>
    <text
       xml:space="preserve"
       style="font-style:normal;font-weight:normal;font-size:10.9325px;line-height:0%;font-family:sans-serif;letter-spacing:0px;word-spacing:0px;fill:#000080;fill-opacity:1;stroke:none;stroke-width:0.911038px;stroke-linecap:butt;stroke-linejoin:miter;stroke-opacity:1"
       x="65.856026"
       y="191.30841"
       id="text4185-6-2-5-2"
       transform="scale(1.4532778,0.68809969)"><tspan
         id="tspan4187-7-5-9-6"
         x="65.856026"
         y="191.30841"
         style="font-style:normal;font-variant:normal;font-weight:normal;font-stretch:normal;font-size:206.617px;line-height:1.25;font-family:'Cry Uncial';-inkscape-font-specification:'Cry Uncial';fill:#000080;fill-opacity:1;stroke-width:0.911038px"> </tspan></text>
    <g
       id="text4189-1-2-7-6-9"
       style="font-style:normal;font-weight:normal;font-size:113.851px;line-height:125%;font-family:sans-serif;letter-spacing:0px;word-spacing:0px;display:inline;fill:#000080;fill-opacity:1;stroke:none;stroke-width:1px;stroke-linecap:butt;stroke-linejoin:miter;stroke-opacity:1"
       transform="matrix(1.1008082,-0.0571244,0.04487031,0.74092986,-235.10845,-161.60703)">
      <path
         id="path4173-9-8-1-6"
         style="font-style:normal;font-variant:normal;font-weight:normal;font-stretch:normal;font-family:'Ramsey SD';-inkscape-font-specification:'Ramsey SD';fill:#000080;fill-opacity:1"
         d="m 223.13877,424.20169 c 0.14712,5.81762 1.36069,7.53913 2.71149,7.79692 2.06405,0.39392 6.14389,-1.3276 7.47063,-2.00631 1.0196,-0.52159 3.02327,-2.2662 5.09213,-4.78706 -1.51613,2.56655 -3.78312,6.10358 -6.28784,8.22879 -4.48691,3.62863 -6.05825,5.48792 -13.0701,4.93101 -9.5108,-0.75539 -7.4772,-18.29628 -7.28101,-27.77691 0.17125,-8.27547 0.29633,-16.88843 0.14928,-28.19085 -1.77667,0.34283 -2.11766,0.6093 -3.62192,1.03009 -1.50182,0.13488 -5.66599,0.84234 -6.43403,0.16074 7.79401,-5.10997 6.60156,-5.97524 12.79171,-14.40318 1.13465,-1.54484 3.24164,-4.84353 6.35409,-7.79219 4.37472,-4.14452 8.42558,-5.07827 11.64461,-6.10957 -8.88617,5.02817 -9.5568,13.08241 -9.68357,14.56185 -0.0699,0.81594 -0.0775,1.31987 -0.0949,3.64477 1.77129,-0.30486 10.14693,0.0682 14.03816,1.04397 -5.94857,1.43971 -11.91833,3.79362 -13.95172,7.1277 -0.31594,19.552 -0.32536,42.54021 0.17305,42.54021 z m -80.68735,-13.59056 c 0.1639,3.84338 -0.12854,13.55097 4.36201,14.72338 4.12214,1.07624 8.4962,-0.66084 11.04986,-8.68854 -1.79358,6.83592 -3.05572,12.41814 -9.35549,15.32447 -2.35428,1.08612 -5.5822,1.27106 -8.85481,0.28557 -8.93594,-2.69087 -8.66174,-11.15615 -8.70477,-17.43499 -0.0577,-8.41076 2.10031,-24.07202 0.9297,-36.63562 -0.0789,-0.84719 -0.16479,-3.38334 -1.49501,-4.48174 -1.68437,-1.39037 -3.20001,-0.8268 -3.20001,-0.8268 -0.90241,0.23122 -3.60236,1.27052 -4.71124,4.29061 1.44383,-4.96409 5.49228,-7.27728 7.2652,-8.30945 1.40395,-0.81736 2.97267,-1.49697 5.28631,-1.72121 4.12639,-0.39992 6.77983,2.2769 7.70503,6.19702 -0.12269,13.42139 -0.71288,27.04714 -0.27678,37.2773 z m -0.57622,-58.9402 a 8.5646806,6.5084088 89.487902 0 1 -5.98543,9.16234 8.5646806,6.5084088 89.487902 0 1 -6.99273,-7.92175 8.5646806,6.5084088 89.487902 0 1 5.98544,-9.16234 8.5646806,6.5084088 89.487902 0 1 6.99272,7.92175 z m 118.98146,25.07076 c -0.65446,-0.0779 -1.27835,-0.0246 -1.83381,0.19867 -10.40612,4.67463 -13.45345,9.78859 -15.05944,13.35038 2.09521,-2.57838 4.34218,-5.62267 8.22956,-6.84662 4.69534,-1.47831 7.44175,4.38604 9.43242,9.91385 0.4667,1.29595 0.92587,2.64149 1.38137,4.02366 -3.14376,3.97316 -8.24025,8.08285 -13.07191,11.16543 -2.89886,1.84947 -8.85659,7.12288 -8.29542,15.51413 0.47577,7.11435 2.08483,10.49282 6.61986,15.05872 2.21622,2.2313 10.68973,4.65127 16.17689,0.54339 6.17824,-4.62527 2.664,-2.14278 6.56583,-5.64105 0.93717,-0.84023 1.80778,-1.8896 2.58237,-2.97997 1.57146,4.07118 3.21962,7.50335 4.99931,9.85147 2.43481,3.21252 6.14716,4.00273 9.27247,2.60757 3.22161,-1.43818 5.13833,-3.84821 7.1004,-7.65594 1.3284,-2.57797 2.8564,-8.74497 2.8564,-8.74497 0,0 -4.38444,8.6011 -6.98246,8.50593 -1.60777,-0.0589 -4.27378,-2.99548 -5.54262,-4.70562 -2.25493,-3.03921 -3.29185,-6.63215 -4.67983,-10.59394 -2.53966,-7.24903 -8.88152,-32.33774 -12.33222,-38.409 -1.15029,-2.02386 -4.58318,-4.81832 -7.41917,-5.15609 z m 3.42921,24.64782 c 2.69991,8.69405 5.27489,18.32249 8.05147,26.25102 -0.51566,0.78329 -1.133,1.55851 -1.87234,2.27554 -2.49249,2.41728 -3.67469,4.04491 -7.79387,5.0376 -3.57035,0.86043 -10.39201,-3.91964 -11.70544,-9.08211 -0.79639,-3.13022 -0.84617,-8.1422 2.10078,-12.31972 1.82525,-2.58744 7.19436,-6.94368 11.2194,-12.16233 z M 47.578548,359.87392 c -0.654458,-0.0779 -1.27835,-0.0246 -1.833811,0.19866 -10.40612,4.67464 -13.453333,9.78596 -15.059333,13.34775 2.095217,-2.57838 4.342076,-5.62004 8.229446,-6.84398 4.695343,-1.47832 7.439991,4.38589 9.430661,9.9137 0.466693,1.29596 0.927635,2.64164 1.383139,4.02381 -3.143761,3.97316 -8.240139,8.08022 -13.071804,11.16281 -2.898858,1.84947 -8.856589,7.12288 -8.295427,15.51413 0.475775,7.11435 2.084729,10.49544 6.619757,15.06134 2.216218,2.2313 10.689734,4.65126 16.176886,0.54338 6.178249,-4.62526 2.664111,-2.14541 6.565942,-5.64367 0.937168,-0.84024 1.807671,-1.88697 2.58227,-2.97734 1.57146,4.07116 3.219619,7.50335 4.999301,9.85147 2.434815,3.21252 6.147171,4.00273 9.272476,2.60757 3.221607,-1.43818 5.138325,-3.84821 7.100406,-7.65594 1.3284,-2.57797 2.856499,-8.74761 2.856499,-8.74761 0,0 -4.384438,8.60112 -6.982465,8.50595 -1.607768,-0.059 -4.273779,-2.99549 -5.542616,-4.70562 -2.254933,-3.03923 -3.29373,-6.62966 -4.681704,-10.59145 -2.539674,-7.24904 -8.879643,-32.34024 -12.330345,-38.4115 -1.15028,-2.02386 -4.583285,-4.81569 -7.419278,-5.15346 z m 3.429319,24.64518 c 2.699912,8.69406 5.274775,18.32513 8.051367,26.25366 -0.515663,0.78329 -1.132897,1.55587 -1.872239,2.2729 -2.492491,2.41728 -3.67657,4.04741 -7.795746,5.0401 -3.570356,0.86043 -10.390132,-3.92214 -11.703565,-9.08461 -0.796384,-3.13022 -0.847933,-8.14233 2.099008,-12.31985 1.825258,-2.58743 7.196139,-6.94354 11.221175,-12.1622 z m 121.419983,32.07765 c -2.19307,2.67662 -5.46679,5.94751 -5.16361,7.23135 0.28595,1.21082 2.61993,3.12903 4.05496,3.73857 1.46545,0.62246 7.90395,1.90296 9.99221,1.64709 3.44176,-0.24603 7.43328,-1.18921 9.29355,-6.38939 0.47805,-1.33633 1.23158,-7.52824 -0.93037,-10.7671 -5.34933,-4.30283 -9.52587,-3.24994 -14.99482,-5.65286 -6.9978,-3.29733 -13.33993,-8.62537 -10.92191,-19.13415 0.43926,-1.74791 0.85524,-3.30353 1.83691,-5.25553 1.06289,-2.1135 2.44067,-4.1816 4.25418,-5.83556 4.56619,-3.97262 9.48308,-4.76905 14.62529,-5.30249 1.98444,-0.20006 4.05877,0.26444 5.36141,0.90596 1.33723,0.65854 2.2482,1.40684 2.85174,2.12332 0.57325,0.68051 0.6327,2.74562 0.38002,3.55353 -0.94268,2.21523 -2.47776,3.63416 -3.40296,4.40162 -1.33688,1.10977 -2.881,1.82834 -4.51031,3.07348 0.52585,-1.08958 3.27875,-4.80751 2.51079,-5.52768 -3.3881,-3.1773 -7.05812,-3.13928 -9.93295,-2.19677 -2.33804,0.76653 -5.32458,4.54974 -6.01613,7.42928 -0.72045,2.99981 1.18191,5.58664 2.80381,7.13 3.90006,3.71126 9.91534,4.45481 14.39072,6.18884 4.24737,1.64568 6.34856,5.38124 8.07396,9.9776 1.23625,3.50783 1.24008,7.37673 0.93558,9.50028 -0.57473,4.00828 -2.35364,10.08986 -8.59963,14.92816 -5.9706,4.62497 -17.3971,3.4403 -23.58446,0.98865 -1.69069,-0.6699 -2.81113,-1.66726 -3.65449,-2.99516 -1.62579,-4.2476 1.3056,-7.48756 3.46557,-9.39947 1.56132,-1.37793 4.89686,-2.91021 6.88057,-4.36152 z m -67.8995,-3.00232 c 0.17467,6.5983 1.57709,8.55267 3.13672,8.84716 2.38314,0.45 7.09163,-1.49607 8.62271,-2.26375 1.17663,-0.58996 3.4883,-2.56547 5.87458,-5.42127 -1.74815,2.90848 -4.36232,6.91646 -7.2521,9.32285 -5.17685,4.10838 -6.98932,6.21464 -15.084524,5.57202 -10.980253,-0.87165 -8.647148,-20.76253 -8.428511,-31.51471 0.292853,-14.40296 0.550159,-43.37815 -0.03015,-65.06182 -0.0011,-1.46341 -0.08948,-2.53956 -0.265238,-3.22847 0.06753,-3.95695 -3.483898,-5.07423 -6.796408,-3.58077 -0.815526,0.36768 -3.573374,1.95742 -6.593565,4.30898 1.05034,-1.54806 4.899951,-6.05715 6.967644,-7.70856 2.534298,-2.02408 4.523595,-3.04007 6.801019,-4.06998 2.277372,-1.11598 4.719398,-1.30525 6.823924,-1.3218 3.753439,-0.0295 6.046659,4.97266 6.723729,11.82823 0.722,30.54715 -1.22433,56.92121 -0.49981,84.29189 z M -31.824404,285.16218 c 0,0 -9.4437,38.32561 -8.430397,57.95724 1.031512,19.9841 11.469712,39.65377 14.666793,58.876 6.018815,36.18849 -13.237028,84.40189 -16.688793,90.36599 3.507469,-4.68907 30.031399,-53.5539 27.286676,-90.8063 -0.002,-0.0267 -0.0037,-0.0529 -0.0056,-0.0795 1.313586,-2.02488 2.541451,-4.13414 3.744303,-6.28298 8.3717536,4.06738 13.5883346,8.54929 19.2590117,27.13357 L 25.71408,423.69131 C 18.863599,408.74547 9.0203471,395.81759 -6.6559194,386.87432 0.4232744,374.36773 9.1792253,362.31672 30.89966,358.76198 L 4.3354559,356.71393 c -8.7681432,5.86633 -15.1775779,16.97386 -21.1818049,27.65602 -1.516821,-11.46929 -3.183341,-22.44182 -3.239941,-39.47679 -0.110517,-33.23338 21.4266324,-56.94997 21.4266324,-56.94997 z m -10.452397,207.19923 c -0.06406,0.0857 -0.24931,0.4117 -0.297609,0.46736 0.07931,-0.10295 0.179928,-0.26402 0.297609,-0.46736 z m -0.297609,0.46736 c -0.08974,0.10343 -0.153124,0.15266 -0.185276,0.14916 l 0.0017,0.003 c 0.0372,0.009 0.09959,-0.0428 0.183617,-0.15192 z" />
    </g>
    <path
       d="m -132.15719,206.8526 v -0.93377 q -3.04491,1.58335 -6.77999,1.58335 -3.0043,0 -5.15603,-1.58335 -2.15173,-1.62395 -2.15173,-3.89748 0,-1.98933 1.58335,-3.77567 2.76071,-3.08551 8.24153,-3.08551 1.86754,0 4.26287,0.40599 v -0.93377 q 0,-1.98934 -3.81628,-1.98934 -2.07054,0 -4.70945,0.69018 -1.01497,0.24359 -1.62395,0.24359 -0.85257,0 -1.42095,-0.56838 -0.56839,-0.60898 -0.56839,-1.50215 0,-1.29916 1.21797,-1.70514 3.45089,-1.21797 6.98297,-1.21797 3.73508,0 5.84622,1.58335 2.15173,1.58335 2.15173,4.42526 v 8.20094 h 0.64958 q 1.33975,0 1.86754,0.36539 0.81197,0.69018 0.81197,1.66455 0,1.17736 -0.97437,1.74574 -0.40599,0.28419 -1.70514,0.28419 z m 0,-5.48082 v -2.02994 q -2.55772,-0.44659 -4.50646,-0.44659 -2.07053,0 -3.69448,0.89318 -1.58335,0.89317 -1.58335,2.07053 0,0.69018 0.89317,1.13676 0.89317,0.44659 2.19233,0.44659 3.32909,0 6.69879,-2.07053 z m 30.48964,-10.10908 v 3.1261 q 0,1.33976 -0.36539,1.82694 -0.64958,0.85257 -1.66455,0.85257 -0.89317,0 -1.46155,-0.56838 -0.36539,-0.28419 -0.60898,-1.38035 -0.203,-0.97437 -0.93377,-1.46156 -1.66455,-1.01497 -4.30347,-1.01497 -3.0043,0 -4.70944,1.74575 -1.62395,1.62395 -1.62395,4.05987 0,4.99364 7.14537,4.99364 2.67951,0 4.26286,-0.52778 0.77138,-0.2436 2.02994,-1.25856 0.52778,-0.48719 1.21796,-0.48719 0.81197,0 1.42095,0.60898 0.60898,0.60898 0.60898,1.46156 0,1.62394 -2.59831,2.9637 -2.67952,1.29916 -7.22657,1.29916 -5.60262,0 -8.44453,-2.80131 -2.47652,-2.47652 -2.47652,-6.2522 0,-4.34406 2.8825,-7.10477 2.92311,-2.76072 7.51076,-2.76072 3.49149,0 5.84622,1.21797 0.36539,-1.21797 1.54275,-1.21797 1.94874,0 1.94874,2.67952 z m 24.359232,0 v 3.1261 q 0,1.33976 -0.365388,1.82694 -0.64958,0.85257 -1.664547,0.85257 -0.893172,0 -1.461554,-0.56838 -0.365388,-0.28419 -0.60898,-1.38035 -0.202994,-0.97437 -0.93377,-1.46156 -1.664547,-1.01497 -4.303463,-1.01497 -3.004303,0 -4.709449,1.74575 -1.623948,1.62395 -1.623948,4.05987 0,4.99364 7.145372,4.99364 2.679514,0 4.262863,-0.52778 0.771375,-0.2436 2.029935,-1.25856 0.527783,-0.48719 1.217961,-0.48719 0.811974,0 1.420955,0.60898 0.60898,0.60898 0.60898,1.46156 0,1.62394 -2.598317,2.9637 -2.679514,1.29916 -7.226568,1.29916 -5.602621,0 -8.44453,-2.80131 -2.476521,-2.47652 -2.476521,-6.2522 0,-4.34406 2.882508,-7.10477 2.923106,-2.76072 7.510759,-2.76072 3.491489,0 5.846213,1.21797 0.365389,-1.21797 1.542751,-1.21797 1.948738,0 1.948738,2.67952 z m 14.737341,-2.67952 q 4.303463,0 7.307767,2.76072 3.044902,2.76071 3.044902,6.69878 0,3.97867 -3.044902,6.73939 -3.044903,2.72011 -7.429563,2.72011 -4.384659,0 -7.429562,-2.72011 -3.044903,-2.76072 -3.044903,-6.73939 0,-4.01927 3.044903,-6.73938 3.044903,-2.72012 7.551358,-2.72012 z m -0.0406,4.05987 q -2.760712,0 -4.628252,1.54276 -1.867541,1.54275 -1.867541,3.85687 0,2.27353 1.826942,3.85688 1.86754,1.54275 4.587653,1.54275 2.720113,0 4.547055,-1.54275 1.86754,-1.58335 1.86754,-3.85688 0,-2.27353 -1.86754,-3.81628 -1.826942,-1.58335 -4.465857,-1.58335 z m 32.803767,-3.53208 v 13.68176 q 2.476521,0 2.476521,2.02994 0,1.09616 -0.974369,1.74574 -0.446585,0.28419 -1.705145,0.28419 h -3.856877 v -1.94874 q -1.502152,1.42096 -2.720113,1.94874 -1.177362,0.52778 -2.841909,0.52778 -2.841909,0 -4.831245,-1.50215 -2.395324,-1.78634 -2.395324,-5.35903 v -7.34836 h -0.649579 -0.446586 -0.162395 q -0.852572,0 -1.461553,-0.56838 -0.60898,-0.60898 -0.60898,-1.46156 0,-1.17736 0.974369,-1.74574 0.446585,-0.28419 1.705145,-0.28419 h 4.709449 v 11.28644 q 0,2.9231 3.572686,2.9231 1.542751,0 2.557718,-0.52778 1.014968,-0.56838 2.598317,-2.23293 v -7.38896 h -1.420954 q -1.380356,0 -1.826942,-0.40599 -0.852573,-0.60898 -0.852573,-1.62395 0,-1.17736 0.974369,-1.74574 0.446586,-0.28419 1.705146,-0.28419 z m 11.570647,0 v 1.94874 q 1.461553,-1.38036 2.679514,-1.90814 1.217961,-0.56839 2.882508,-0.56839 2.7607118,0 4.8312456,1.50216 2.3953234,1.78634 2.3953234,5.31843 v 7.38896 q 2.4765208,0 2.4765208,2.02994 0,1.17736 -0.9743689,1.74574 -0.4465857,0.28419 -1.7051454,0.28419 H -9.264848 q -2.720113,0 -2.720113,-2.02993 0,-2.02994 2.4765208,-2.02994 v -7.22657 q 0,-2.92311 -3.6538828,-2.92311 -1.420955,0 -2.557718,0.60899 -1.096165,0.60898 -2.51712,2.15173 v 7.38896 h 0.243592 q 1.299159,0 1.826942,0.36539 0.852573,0.64958 0.852573,1.66455 0,1.09616 -0.974369,1.74574 -0.446586,0.28419 -1.705146,0.28419 h -4.547054 q -1.299159,0 -1.867541,-0.40599 -0.811974,-0.60898 -0.811974,-1.62394 0,-1.17737 0.974369,-1.74575 0.527783,-0.28419 1.705146,-0.28419 h 0.243592 v -9.62189 q -2.476521,-0.0812 -2.476521,-2.02994 0,-0.85257 0.487184,-1.38035 0.527784,-0.56839 1.380356,-0.64958 0,0 0.852573,0 z m 25.1306054,4.05987 v 7.95734 q 0,1.13677 0.3247896,1.50216 0.7307766,0.81197 3.166699,0.81197 3.207297,0 5.92741,-1.38036 0.852573,-0.44658 1.420955,-0.44658 0.811974,0 1.380356,0.60898 0.568381,0.60898 0.568381,1.46155 0,0.73078 -0.446585,1.21796 -0.446586,0.44659 -1.58335,0.97437 -1.461553,0.69018 -3.613284,1.13676 -2.111133,0.48719 -3.694482,0.48719 -3.4508896,0 -5.4808247,-1.50215 -2.0299351,-1.50215 -2.0299351,-4.10047 v -8.72872 H 1.4126197 q -1.33975717,0 -1.86754029,-0.40599 -0.81197401,-0.60898 -0.81197401,-1.62395 0,-1.17736 0.97436882,-1.74574 0.44658572,-0.28419 1.70514548,-0.28419 h 1.4209545 v -3.57269 q 0,-1.33976 0.405987,-1.86754 0.6089806,-0.81197 1.6239481,-0.81197 1.1773624,0 1.7457442,0.97437 0.2841909,0.44658 0.2841909,1.70514 v 3.57269 h 7.3483646 q 1.299159,0 1.867541,0.36539 0.811974,0.69017 0.811974,1.66454 0,1.17736 -0.974369,1.74575 -0.446586,0.28419 -1.705146,0.28419 z m 29.8806606,-4.05987 v 13.68176 h 4.953042 q 1.299158,0 1.826942,0.36539 0.852572,0.64958 0.852572,1.66455 0,1.09616 -0.974369,1.74574 -0.487184,0.28419 -1.705145,0.28419 H 27.761194 q -1.380356,0 -1.826942,-0.40599 -0.852573,-0.60898 -0.852573,-1.62394 0,-1.17737 0.974369,-1.74575 0.405987,-0.28419 1.705146,-0.28419 h 4.953041 v -9.62189 h -3.166698 q -1.420955,0 -1.867541,-0.40599 -0.852572,-0.60898 -0.852572,-1.62395 0,-1.17736 0.974368,-1.74574 0.446586,-0.28419 1.745745,-0.28419 z m -0.568381,-7.59196 v 4.30346 h -4.790647 v -4.30346 z m 18.63482,7.59196 v 1.94874 q 1.461554,-1.38036 2.679515,-1.90814 1.217961,-0.56839 2.882507,-0.56839 2.760712,0 4.831246,1.50216 2.395323,1.78634 2.395323,5.31843 v 7.38896 q 2.476521,0 2.476521,2.02994 0,1.17736 -0.974369,1.74574 -0.446585,0.28419 -1.705145,0.28419 h -3.613285 q -2.720113,0 -2.720113,-2.02993 0,-2.02994 2.476521,-2.02994 v -7.22657 q 0,-2.92311 -3.653883,-2.92311 -1.420954,0 -2.557718,0.60899 -1.096165,0.60898 -2.51712,2.15173 v 7.38896 h 0.243593 q 1.299158,0 1.826941,0.36539 0.852573,0.64958 0.852573,1.66455 0,1.09616 -0.974369,1.74574 -0.446586,0.28419 -1.705145,0.28419 H 50.53708 q -1.299158,0 -1.86754,-0.40599 -0.811974,-0.60898 -0.811974,-1.62394 0,-1.17737 0.974369,-1.74575 0.527783,-0.28419 1.705145,-0.28419 h 0.243592 v -9.62189 q -2.476521,-0.0812 -2.476521,-2.02994 0,-0.85257 0.487185,-1.38035 0.527783,-0.56839 1.380356,-0.64958 0,0 0.852572,0 z m 33.087959,1.46155 v -1.46155 h 4.709449 q 1.339757,0 1.867541,0.36539 0.811974,0.69017 0.811974,1.66454 0,1.17736 -0.974369,1.74575 -0.446586,0.28419 -1.705146,0.28419 h -0.649579 v 14.49373 q 0,3.2073 -2.232929,5.35903 -2.192329,2.15173 -5.521423,2.15173 h -4.547055 q -1.380355,0 -1.826941,-0.40598 -0.852573,-0.60898 -0.852573,-1.62395 0,-1.17736 0.974369,-1.74575 0.446586,-0.28419 1.705145,-0.28419 h 4.425259 q 1.745744,0 2.760712,-0.93377 1.055566,-0.93377 1.055566,-2.51712 v -2.23292 q -2.679514,1.98933 -5.724417,1.98933 -4.100469,0 -6.861181,-2.67951 -2.720113,-2.72012 -2.720113,-6.73939 0,-4.05987 2.720113,-6.73938 2.760712,-2.72011 6.861181,-2.72011 3.329093,0 5.724417,2.02993 z m -5.64322,2.02994 q -2.314126,0 -3.978672,1.58335 -1.623948,1.54275 -1.623948,3.77567 0,2.23293 1.623948,3.81628 1.664546,1.58335 3.978672,1.58335 2.314126,0 3.978673,-1.54275 1.664547,-1.58335 1.664547,-3.77568 0,-2.27353 -1.664547,-3.85687 -1.623948,-1.58335 -3.978673,-1.58335 z"
       id="text1"
       style="font-weight:bold;font-size:40.5987px;font-family:'Miriam Mono CLM';-inkscape-font-specification:'Miriam Mono CLM Bold';fill:#333333;stroke-width:4.05987"
       transform="scale(1.1248975,0.88896989)"
       aria-label="accounting" />
  </g>
</svg>
