<?xml version="1.0" encoding="UTF-8" standalone="no"?>
<!-- Created with Inkscape (http://www.inkscape.org/) -->

<svg
   width="128"
   height="32"
   viewBox="0 0 128 32"
   version="1.1"
   id="svg1"
   xml:space="preserve"
   xmlns="http://www.w3.org/2000/svg"
   xmlns:svg="http://www.w3.org/2000/svg"><defs
     id="defs1" /><g
     id="layer1"><path
       id="rect2-2-6"
       style="font-variation-settings:'wght' 700;fill:#000000;stroke:none;stroke-width:4.99999;stroke-linecap:round"
       d="M 9.0276819,2 A 4.4290657,5.3703693 0 0 0 4.5986157,7.3703703 V 12.74074 H 1.9411761 v 4.296297 h 2.6574396 v 8.166739 h 3.5432529 v -8.166739 h 1.7716255 v 8.592592 A 4.4290657,5.3703703 0 0 0 14.34256,31 H 17 v -1.074074 -3.222223 h -2.65744 a 0.88581316,1.0740741 0 0 1 -0.885812,-1.074074 v -5.261284 -3.331308 h 2.657439 V 12.74074 H 13.456748 9.9134941 8.1418686 V 7.3703703 a 0.88581316,1.0740741 0 0 1 0.8858133,-1.074074 0.88581316,1.0740741 0 0 1 0.8858122,1.074074 V 9.5185185 H 13.456748 V 7.3703703 A 4.4290657,5.3703693 0 0 0 9.0276819,2 Z" /><path
       d="m 18.737615,24.970051 h 2.073395 v -8.613633 h 2.156887 v -1.725509 h -6.401084 v 1.725509 h 2.170802 z m 7.194262,-5.524414 v -3.172711 h 0.459208 c 0.84884,0 1.363709,0.375716 1.363709,1.488948 0,1.113232 -0.514869,1.683763 -1.363709,1.683763 z m 1.934241,5.524414 h 2.170802 l -1.697679,-4.313774 c 0.862755,-0.487039 1.433286,-1.433286 1.433286,-2.894403 0,-2.365618 -1.405455,-3.130965 -3.186626,-3.130965 h -2.713503 v 10.339142 h 2.059479 v -3.896312 h 0.556616 z m 2.435194,0 h 1.962072 l 0.417462,-2.643926 h 1.975986 l 0.417462,2.643926 h 1.989903 L 35.102125,14.630909 h -2.838741 z m 2.630011,-4.258112 0.1809,-1.127148 c 0.1809,-1.071486 0.375716,-2.254295 0.51487,-3.381442 h 0.05566 c 0.1809,1.127147 0.333969,2.309956 0.528785,3.381442 l 0.1809,1.127148 z m 4.939968,4.258112 h 1.642017 v -4.160705 c 0,-1.141062 -0.111323,-2.518687 -0.208731,-3.604088 h 0.05566 l 0.626193,2.532603 1.405456,5.23219 H 43.40962 V 14.630909 h -1.642017 v 4.146789 c 0,1.141063 0.111323,2.546518 0.208731,3.618004 h -0.05566 l -0.626193,-2.532603 -1.405455,-5.23219 h -2.017733 z m 9.671201,0.166985 c 1.878579,0 3.075304,-1.335879 3.075304,-2.96398 0,-1.502864 -0.681855,-2.184718 -1.614187,-2.838742 l -0.834924,-0.598362 c -0.918416,-0.654024 -1.266301,-0.904501 -1.266301,-1.600271 0,-0.570532 0.403547,-0.904501 0.87667,-0.904501 0.598362,0 1.001909,0.320054 1.57244,0.848839 l 1.071486,-1.294132 c -0.793178,-0.834924 -1.628102,-1.321963 -2.657841,-1.321963 -1.75334,0 -2.936149,1.252386 -2.936149,2.824826 0,1.461117 0.751431,2.212549 1.642017,2.824826 l 0.890585,0.612278 c 0.779263,0.500954 1.141063,0.974078 1.141063,1.739425 0,0.5427 -0.375716,0.890585 -0.960163,0.890585 -0.570531,0 -1.182808,-0.417462 -1.725509,-1.099316 l -1.266301,1.377624 c 0.848839,0.974078 1.906409,1.502864 2.99181,1.502864 z"
       id="text1"
       style="font-weight:bold;font-size:13.9154px;font-family:'Noto Sans Mono CJK TC';-inkscape-font-specification:'Noto Sans Mono CJK TC Bold';text-align:center;text-anchor:middle;stroke-width:5;stroke-linecap:round"
       transform="scale(1.1267624,0.88749856)"
       aria-label="TRANS" /><path
       d="m 22.125524,29.447985 h 1.048454 v -3.709048 h 2.423846 v -0.890622 h -2.423846 v -2.784604 h 2.852246 v -0.901896 h -3.9007 z m 5.287365,0 h 4.058532 V 28.57991 h -1.499402 v -6.516199 h 1.499402 v -0.901896 h -4.058532 v 0.901896 h 1.499402 v 6.516199 h -1.499402 z m 6.696578,-4.351648 v -3.07772 h 0.597506 c 1.03718,0 1.612139,0.383305 1.612139,1.476854 0,1.082275 -0.574959,1.600866 -1.612139,1.600866 z m 2.299835,4.351648 h 1.116096 l -1.612139,-3.675226 c 0.879348,-0.315664 1.443033,-1.071002 1.443033,-2.277288 0,-1.713602 -1.03718,-2.333656 -2.502761,-2.333656 h -1.803792 v 8.28617 h 1.059728 v -3.506121 h 0.744064 0.06764 z m 4.3291,0.135284 c 1.397939,0 2.277287,-0.980812 2.277287,-2.232192 0,-1.195013 -0.597506,-1.769971 -1.352844,-2.266014 l -0.800432,-0.51859 C 40.084527,24.059156 39.75759,23.732219 39.75759,23.03325 c 0,-0.665149 0.473495,-1.093549 1.082275,-1.093549 0.574959,0 0.992086,0.315663 1.420486,0.789159 l 0.574959,-0.676422 c -0.51859,-0.597506 -1.183739,-1.025907 -2.006719,-1.025907 -1.25138,0 -2.119455,0.890622 -2.119455,2.085634 0,1.104823 0.574959,1.691055 1.330296,2.164551 l 0.834254,0.541137 c 0.631327,0.405854 1.082275,0.856802 1.082275,1.668508 0,0.698969 -0.484769,1.183738 -1.217559,1.183738 -0.60878,0 -1.195012,-0.394579 -1.657234,-1.014633 L 38.41602,28.36571 c 0.608779,0.755337 1.397938,1.217559 2.322382,1.217559 z m 5.095713,-0.135284 h 1.048454 v -7.384274 h 1.972897 v -0.901896 h -5.005523 v 0.901896 h 1.984172 z m 10.08996,0 h 3.979616 v -0.890623 h -2.931162 v -7.395547 h -1.048454 z m 7.339181,0.135284 c 1.206286,0 2.175824,-0.676422 2.175824,-2.68314 v -5.738314 h -1.003359 v 5.772135 c 0,1.319023 -0.518591,1.747423 -1.172465,1.747423 -0.60878,0 -1.093549,-0.4284 -1.093549,-1.747423 v -5.772135 h -1.048454 v 5.738314 c 0,2.006718 0.924443,2.68314 2.142003,2.68314 z m 3.213003,-0.135284 h 1.048454 l 0.800433,-2.153277 c 0.135284,-0.405853 0.338211,-0.946991 0.507316,-1.443034 h 0.04509 c 0.191653,0.507317 0.349485,1.037181 0.496043,1.443034 l 0.834253,2.153277 h 1.116097 l -1.758697,-4.193817 1.668507,-4.092353 h -1.03718 l -0.755338,2.051814 c -0.135285,0.383306 -0.30439,0.82298 -0.473496,1.296475 h -0.04509 c -0.18038,-0.473495 -0.338211,-0.924443 -0.473496,-1.296475 l -0.789159,-2.051814 h -1.093549 l 1.668508,3.968343 z m 8.060694,0.135284 c 1.206286,0 2.175824,-0.676422 2.175824,-2.68314 v -5.738314 h -1.003359 v 5.772135 c 0,1.319023 -0.518591,1.747423 -1.172465,1.747423 -0.60878,0 -1.093549,-0.4284 -1.093549,-1.747423 V 21.161815 H 72.39495 v 5.738314 c 0,2.006718 0.924443,2.68314 2.142003,2.68314 z m 4.667314,-4.486932 v -3.07772 h 0.597506 c 1.03718,0 1.612139,0.383305 1.612139,1.476854 0,1.082275 -0.574959,1.600866 -1.612139,1.600866 z m 2.299835,4.351648 h 1.116096 l -1.612139,-3.675226 c 0.879348,-0.315664 1.443033,-1.071002 1.443033,-2.277288 0,-1.713602 -1.03718,-2.333656 -2.502761,-2.333656 h -1.803792 v 8.28617 h 1.059728 v -3.506121 h 0.744064 0.06764 z m 3.776688,0 h 1.059727 v -2.95371 l 2.017993,-5.33246 h -1.071002 l -0.82298,2.446393 c -0.202927,0.665149 -0.417127,1.251381 -0.631327,1.905255 h -0.0451 C 85.596453,24.859589 85.4048,24.28463 85.1906,23.619482 l -0.834254,-2.457667 h -1.093549 l 2.017993,5.33246 z"
       id="text1-1"
       style="font-size:11.2737px;font-family:'Noto Sans Mono CJK TC';-inkscape-font-specification:'Noto Sans Mono CJK TC';text-align:center;text-anchor:middle;stroke-width:5;stroke-linecap:round"
       transform="scale(0.95314156,1.0491621)"
       aria-label="FIRST LUXURY" /></g></svg>
