<svg xmlns="http://www.w3.org/2000/svg" width="32" height="32" viewBox="0 0 32 32"><path d="M15.824.78c-2.978 0-5.399 1.99-6.64 4.554-1.242 2.564-1.412 5.821.11 8.676a7.3 7.3 0 0 0 1.128 1.61l-1.606.976-.043.027c-1.704 1.13-2.745 2.244-3.191 3.62-.446 1.374-.338 2.707-.338 4.534 0 1.436-.123 3.511.022 5.123a1.33 1.33 0 0 0 1.203 1.204c1.598.142 3.503.023 4.916.023.996 0 4.45.025 7.685.027 1.618.002 3.183-.002 4.373-.017a61 61 0 0 0 1.473-.033c.189-.008.347-.014.486-.026.07-.006.133-.013.213-.025s.104.042.469-.143a1.33 1.33 0 0 0 .72-1.058c.153-1.607.022-3.73.022-5.147 0-1.486.255-3.359-.617-5.115-.73-1.47-2-2.404-3.16-3.131a37 37 0 0 0-1.455-.873c.372-.407.763-.802 1.125-1.488.956-1.819 1.111-3.228 1.111-5.08 0-2.376-1.15-4.44-2.23-5.655C20.29 1.89 18.372.78 15.824.78" style="fill:#ccc;fill-opacity:1;fill-rule:evenodd;stroke:none;stroke-width:.0175837" transform="matrix(.53343 0 0 .47242 16.667 8.266)"/><path d="M15.824.78c-2.978 0-5.399 1.99-6.64 4.554-1.242 2.564-1.412 5.821.11 8.676a7.3 7.3 0 0 0 1.128 1.61l-1.606.976-.043.027c-1.704 1.13-2.745 2.244-3.191 3.62-.446 1.374-.338 2.707-.338 4.534 0 1.436-.123 3.511.022 5.123a1.33 1.33 0 0 0 1.203 1.204c1.598.142 3.503.023 4.916.023.996 0 4.45.025 7.685.027 1.618.002 3.183-.002 4.373-.017a61 61 0 0 0 1.473-.033c.189-.008.347-.014.486-.026.07-.006.133-.013.213-.025s.104.042.469-.143a1.33 1.33 0 0 0 .72-1.058c.153-1.607.022-3.73.022-5.147 0-1.486.255-3.359-.617-5.115-.73-1.47-2-2.404-3.16-3.131a37 37 0 0 0-1.455-.873c.372-.407.763-.802 1.125-1.488.956-1.819 1.111-3.228 1.111-5.08 0-2.376-1.15-4.44-2.23-5.655C20.29 1.89 18.372.78 15.824.78" style="fill:#ccc;fill-opacity:1;fill-rule:evenodd;stroke:none;stroke-width:.0175837" transform="matrix(.53343 0 0 .47242 -1.586 8.198)"/><path d="M15.824.78c-2.978 0-5.399 1.99-6.64 4.554-1.242 2.564-1.412 5.821.11 8.676a7.3 7.3 0 0 0 1.128 1.61l-1.606.976-.043.027c-1.704 1.13-2.745 2.244-3.191 3.62-.446 1.374-.338 2.707-.338 4.534 0 1.436-.123 3.511.022 5.123a1.33 1.33 0 0 0 1.203 1.204c1.598.142 3.503.023 4.916.023.996 0 4.45.025 7.685.027 1.618.002 3.183-.002 4.373-.017a61 61 0 0 0 1.473-.033c.189-.008.347-.014.486-.026.07-.006.133-.013.213-.025s.104.042.469-.143a1.33 1.33 0 0 0 .72-1.058c.153-1.607.022-3.73.022-5.147 0-1.486.255-3.359-.617-5.115-.73-1.47-2-2.404-3.16-3.131a37 37 0 0 0-1.455-.873c.372-.407.763-.802 1.125-1.488.956-1.819 1.111-3.228 1.111-5.08 0-2.376-1.15-4.44-2.23-5.655C20.29 1.89 18.372.78 15.824.78" style="fill:#ccc;fill-opacity:1;fill-rule:evenodd;stroke:none;stroke-width:.0119938" transform="matrix(.77633 0 0 .69768 3.553 4.926)"/><path d="m5.158 15.714 3.152.02 2.579 3.41 2.961-3.423 4.25.045 3.057 3.42 2.532-3.36 2.915.031-.43 4.394-10.03 3.63-10.89-3.725" style="fill:#f9f9f9;fill-opacity:1;stroke-width:1.8;stroke-linecap:round;stroke-linejoin:round"/><path d="M17.005 22.148c-.19-.223-.186-.547-.223-.844-.043-.35-.058-.676-.105-.99-.048-.324-.07-.628-.106-.976-.108-1.065-.116-.855-1.13-.852l-.46 3.526-.028.059-.107-.28c-.232-.92-1.08-5.05-1.045-5.348.028.006 1.6.511 1.623.523 0 0-.463 1.224.543 1.243.336.007.525-.161.628-.366.178-.35.021-.53-.03-.821l1.662-.547c.103.382-1.078 4.805-1.222 5.673m6.722-5.935c0-.266.174-.127.376-.052.179.068.429.105.612.197.023.428-.073.405.119.739.401.106.395.07.678-.087l.047-.675 1.024-.297c-.009.38-.65 3.26-.788 3.5-.09-.09-.027.075-.12-.189-.034-.098-.039-.205-.05-.308l-.166-1.473c-.086-.246.048-.263-.657-.192-.102.294-.228 1.749-.24 2.174-.307-.207-.34-1.01-.483-1.638-.074-.325-.352-1.467-.352-1.699m-18.218-.182.925.32c.026.4-.044.447.116.745.396.1.394.072.679-.083l.047-.675 1.025-.297c-.008.315-.684 3.368-.792 3.513-.18-.25-.288-1.733-.366-2.197l-.624.006-.26 2.187c-.278-.203-.408-1.399-.489-1.752-.088-.384-.391-1.539-.26-1.767m5.82-4.27c0 2.73 1.899 3.896 2.043 4.166-.091.083-2.266 1.342-2.393 1.378-.292-.144-.34-.28-.554-.47-.521-.465-1.476-.83-1.814-1.122.155-.484 1.29-.765 1.29-2.947 0-1.585-1.463-3.135-3.106-3.073-1.632.062-2.954 1.532-2.954 3.217 0 1.889 1.116 2.36 1.308 2.828-1.205.757-2.666 1.072-2.666 2.918 0 3.456-.218 3.096.615 3.083 1.22-.019 5.392-.052 6.045.034.14.417.06 1.486.06 1.982 0 1.247-.168 1.581.33 1.581 1.672 0 12.557.06 13.272-.026.093-.534-.044-2.994.036-3.338.038-.166-.002-.063.071-.16.465-.288 5.525.096 6.614-.1l.017-3.128c0-2.097-2.354-2.344-2.647-2.959.312-.339.597-.497.882-1.032 1.2-2.25-.417-4.9-2.562-4.9-1.693 0-3.092 1.496-3.092 3.073 0 2.172 1.159 2.488 1.275 2.945-.169.16-1.274.732-1.816 1.13-.239.175-.285.305-.486.453-.11.028-2.303-1.244-2.436-1.368.465-.698 2.036-1.342 2.036-4.453 0-2.628-2.189-4.885-4.804-4.828-2.562.055-4.564 2.312-4.564 5.116" style="fill:#000;fill-opacity:1;fill-rule:evenodd;stroke:none;stroke-width:.00922655"/></svg>