<svg xmlns="http://www.w3.org/2000/svg" width="32" height="32" viewBox="0 0 32 32"><path d="M8.053.617c-.62-.004-1.21.008-1.897.127-1.25.213-1.774 1.828-.922 2.738L8.02 6.574c-.066.24-.118.489-.172.737-.249.017-.496.062-.76.103l-2.71-3.008c-.841-.936-2.549-.48-2.85.707l-.005.014c-.476 1.952-.398 4.099.66 6.008h.003c.824 1.484 2.125 2.602 3.705 3.135h.002c1.296.435 2.573.343 3.793.1l1.566 1.599c-.528.524-1.071 1.049-1.582 1.588l-.002.002c-.888.938-1.638 1.711-2.314 2.39-.386-.023-.785-.061-1.122-.039H6.23c-1.822.122-3.218 1.234-4.13 2.453h-.002c-.715.956-.928 2.093-.946 3.135v.002c-.018 1.162.134 2.665 1.239 3.828l.002.002c.61.64 1.292 1.675 2.836 1.883l.005.002c1.084.143 2.513.24 3.903-.541 1.84-1.038 3.104-2.969 3.11-5.205v-.002c0-.374-.028-.586-.038-.84a520 520 0 0 0 3.295-3.315c.13-.132.34-.32.517-.48l.094.094c-.118.23-.288.4-.303.709-.025.564.235 1.093.506 1.408.33.382.837.56 1.362.576.03.07.058.154.09.22.091.197.127.354.443.682v.002q1.5 1.562 5.086 5.274v.002c.159.164.401.43.709.777l.002.002q.152.173.357.326c.498.368 1.082.542 1.64.592.828.074 2.09-.128 2.89-.984l.062-.069c.01-.012.266-.254.982-.959.476-.467.824-1.118.932-1.722.108-.605.045-1.103-.014-1.559-.105-.818-.37-1.247-.896-1.746l-.004-.004c-.438-.413-.78-.754-1.016-1.011l-.003-.004q-2.099-2.283-4.243-4.557c-.296-.316-.569-.571-1.01-.799a2.07 2.07 0 0 0-.375-1.193 2.05 2.05 0 0 0-.93-.8c-.336-.155-.926-.116-1.47.071-.104-.1-.21-.2-.303-.295l2.479-2.46c1.557.253 3.265.167 4.674-.956l.002-.002c2.132-1.698 3.383-4.697 2.295-7.53l-.002-.003a1.625 1.625 0 0 0-2.153-.912c-.255.105-.523.27-.73.5-.724.778-1.34 1.477-1.955 2.174l-.54-.166-.124-.461 2.138-2.235.008-.007c.835-.884.376-2.45-.793-2.752l-.01-.002c-1.202-.303-2.4-.289-3.484.008-3.104.847-5.05 4.126-4.264 7.623-.412.428-1.24 1.276-2.212 2.27-.482-.514-1-1.042-1.37-1.456.377-1.76.318-3.645-.593-5.293l-.002-.002C12.803 2.097 10.57.63 8.055.617Zm.162 5.13-.004.019-.002-.004zm-.62 2.632q-.002.015-.007.031l.004-.025q.001-.004.004-.006m14.663 4.959q.007 0 .013.002h-.003zM6.402 25.348q.254.01.502.006l.09.12-.031.602-.035.037-.02.02-.53.03-.114-.087q.005-.286-.008-.58c.025-.024.056-.048.082-.074s.042-.05.064-.074m20.795 1.927q.004.004.002.004L0 0Z" style="fill:#ccc;stroke-width:.0100222"/><g style="stroke-width:1.09007"><path d="M2709.2 4443.27c-.56-.588-.227-1.56.573-1.694 8.267-1.414 14.96-1.56 23.787-1.507 27.413.12 53.64 16.773 66.733 39.88 11.68 20.707 12.787 47.493 5.36 70.307a4.19 4.19 0 0 0 .867 4.12c13.52 15.173 36.493 39.04 55.36 57.773 7.267 7.227 19.213 19.493 35.827 36.8 4.253 4.453 9.173 9.133 14.76 14.027a.71.71 0 0 1 .04 1.026l-35.774 35.747c-.586.613-1.573.613-2.186 0L2766.4 4591.602a1.82 1.82 0 0 0-1.76-.453c-18.92 5.293-37.347 6.96-55.28 1.053-18-5.946-31.84-17.466-41.533-34.573-12.267-21.693-13.387-46-7.414-69.987.28-1.08 1.64-1.426 2.387-.613l47.2 51.373c.227.254.6.36.92.24 11.64-3.906 24.987-4.413 37.4-4.786a1.35 1.35 0 0 0 1.293-1.134c1.84-12.24 4.614-23.706 8.254-34.413.306-.933.106-1.947-.56-2.667z" style="fill:#4d4d4d;fill-opacity:1;fill-rule:nonzero;stroke:none;stroke-width:.145342" transform="matrix(.06828 0 0 .06964 -178.645 -307.08)"/><path d="M3033.213 4486.83a.98.98 0 0 1 1.294.532c11.6 29.587-2.44 63.667-26.48 82.427-16.16 12.64-40.16 13.893-60.387 8.613a4.36 4.36 0 0 0-4.12 1.107l-50.187 48.84a1.5 1.5 0 0 1-2.08-.013l-34.946-34.96c-.654-.667-.654-1.72 0-2.36 23.386-23.36 38.706-38.773 45.96-46.213 3.666-3.76 3.586-5.814 2.026-10.88-17.413-56.667 29.174-102.094 85.147-88.294 1 .254 1.36 1.494.653 2.227l-39 39.947a3.29 3.29 0 0 0-.813 3.16l7.627 27.626c.253.907.96 1.627 1.866 1.894l31.52 9.48c.667.213 1.374 0 1.814-.507 11.093-12.6 23.653-26.293 37.68-41.067.6-.653 1.413-1.173 2.426-1.56m-341.053 271.093c-.92.92-2.747 2.52-5.507 4.827-1.653 1.373-2.52 3.453-2.293 5.573.747 7.267.867 13.947.333 20.04-.333 3.88.654 6.987 3.774 8.76 4.72 2.694 8.813 5.694 12.32 9.014a3.84 3.84 0 0 0 2.893 1.08l20.747-1.12c1.533-.093 2.986-.694 4.106-1.747a180 180 0 0 0 5.147-4.973 198 198 0 0 0 4.973-5.16 6.38 6.38 0 0 0 1.72-4.107l1.094-20.747a3.88 3.88 0 0 0-1.067-2.906c-3.347-3.494-6.347-7.587-9.067-12.294-1.76-3.12-4.866-4.106-8.746-3.76-6.094.534-12.774.427-20.04-.293a6.43 6.43 0 0 0-5.587 2.307c-2.293 2.746-3.88 4.586-4.8 5.506m114.08-112.64c.373-.067.747.053 1.027.32l36.146 36.16c.44.44.44 1.174-.013 1.614-4.826 4.626-11.56 10.16-16.973 15.56-10.867 10.853-27.44 27.2-49.72 49.013-1.107 1.067-2.733 3.36-4.893 6.84a2.5 2.5 0 0 0-.347 1.747c.44 2.68.64 8.613.627 17.813-.053 24.533-12.707 43.507-33.8 55.16-12.134 6.693-29.707 6.747-42.88 5.04-10.067-1.333-18.787-10.773-27.974-20.24-10.96-11.32-12.093-23.707-11.84-39.107.227-12.92 2.187-22.586 9.294-31.906 10.706-14.027 25.573-25.054 43.64-26.227 5.493-.36 12.533-.107 21.106.76.694.093 1.387-.013 2.04-.253 1.574-.574 3.134-1.627 4.694-3.174 10.76-10.52 23.32-23.226 37.68-38.106 9.266-9.587 20.653-19.934 31.066-30.574.174-.186.547-.32 1.12-.44" style="fill:#d4aa00;fill-opacity:1;fill-rule:nonzero;stroke:none;stroke-width:.145342" transform="matrix(.06828 0 0 .06964 -178.645 -307.08)"/><path d="M2916.867 4730.496a4.34 4.34 0 0 0-6.147-.12l-1.613 1.546a4.355 4.355 0 0 0-.12 6.147l82.053 85.253a4.327 4.327 0 0 0 6.133.12l1.614-1.546a4.34 4.34 0 0 0 .12-6.147zm15-17.467c-1.84-1.947-4.907-2.013-6.854-.16l-1.106 1.053a4.874 4.874 0 0 0-.16 6.867l82.786 86.613c1.84 1.947 4.92 2.014 6.854.16l1.106-1.053a4.85 4.85 0 0 0 .16-6.867zm15.693-15.547a3.22 3.22 0 0 0-4.547-.106l-3.106 2.946c-1.28 1.227-1.334 3.28-.107 4.56l83.373 87.56a3.236 3.236 0 0 0 4.56.107l3.094-2.947c1.28-1.226 1.333-3.28.12-4.56zm-75.44 27.36c-2.573-2.92-2.427-5.96.44-9.106 6.133-6.76 12.307-11.854 20-19.6 10.933-11.027 22.973-22.827 36.133-35.36 3.134-2.974 7.627.36 9.44 3 4.147 6.026-3.88 14.266 5.04 19.786 1.467.894 4.347 2.374 8.64 4.414 2.32 1.106 5.294 3.52 8.867 7.253a7227 7227 0 0 1 61.987 65.253c4.053 4.347 9.413 9.587 16.08 15.747 2.8 2.6 5.626 7.52 6.16 11.587 1.56 11.986 1.68 20.053-6.76 28.186-10.494 10.12-15.827 15.267-15.974 15.44-6.613 6.947-14.013 7.907-23.506 7.067-5.027-.44-9.16-1.827-12.4-4.173a10.6 10.6 0 0 1-1.68-1.507c-4.6-5.107-8.28-9.08-11.08-11.92-35-35.547-59.814-60.8-74.427-75.72-1.24-1.267-3.04-5.027-5.4-11.307-.32-.866-1.56-2.786-3.68-5.746-3.067-4.28-9.027-2.867-14.013-1.96a4.1 4.1 0 0 1-3.867-1.334" style="fill:#a00;fill-opacity:1;fill-rule:nonzero;stroke:none;stroke-width:.145342" transform="matrix(.06828 0 0 .06964 -178.645 -307.08)"/><path d="M3030.947 4785.042c1.213 1.28 1.16 3.334-.12 4.56l-3.094 2.947a3.236 3.236 0 0 1-4.56-.107l-83.373-87.56c-1.227-1.28-1.173-3.333.107-4.56l3.106-2.946a3.22 3.22 0 0 1 4.547.106zm-16.294 14.6a4.85 4.85 0 0 1-.16 6.867l-1.106 1.053c-1.934 1.854-5.014 1.787-6.854-.16l-82.786-86.613a4.874 4.874 0 0 1 .16-6.867l1.106-1.053c1.947-1.853 5.014-1.787 6.854.16zm-15.746 16.107a4.34 4.34 0 0 1-.12 6.147l-1.614 1.546a4.327 4.327 0 0 1-6.133-.12l-82.053-85.253a4.355 4.355 0 0 1 .12-6.147l1.613-1.546a4.34 4.34 0 0 1 6.147.12zm-265.227-16.373c-1.88 1.88-3.6 3.546-5.147 4.973-1.12 1.053-2.573 1.653-4.106 1.747l-20.747 1.12a3.84 3.84 0 0 1-2.893-1.08c-3.507-3.32-7.6-6.32-12.32-9.014-3.12-1.773-4.107-4.88-3.774-8.76.534-6.093.414-12.773-.333-20.04-.227-2.12.64-4.2 2.293-5.573 2.76-2.307 4.587-3.907 5.507-4.827s2.507-2.76 4.8-5.506a6.43 6.43 0 0 1 5.587-2.307c7.266.72 13.946.827 20.04.293 3.88-.346 6.986.64 8.746 3.76 2.72 4.707 5.72 8.8 9.067 12.294a3.88 3.88 0 0 1 1.067 2.906l-1.094 20.747a6.38 6.38 0 0 1-1.72 4.107 198 198 0 0 1-4.973 5.16" style="fill:#fff;fill-opacity:1;fill-rule:nonzero;stroke:none;stroke-width:.145342" transform="matrix(.06828 0 0 .06964 -178.645 -307.08)"/></g></svg>