<svg xmlns="http://www.w3.org/2000/svg" viewBox="0 0 24 24" width="24" height="24" fill="currentColor">
  <path d="m11.778 1.3248c-3.775 3.549e-4 -6.8347 1.2798-6.8341 2.8579 0.00303 1.577 3.0616 2.8549 6.8341 2.8552 3.7736 2.689e-4 6.8338-1.2778 6.8368-2.8552 5.4e-4 -1.5785-3.0608-2.8582-6.8368-2.8579zm6.9071 5.4627c-0.95149 1.544-3.3921 2.5989-6.899 2.5986-2.8026 0-5.5331-0.73665-6.8347-2.2844l-0.00764 3.4463c1.4134 1.702 4.598 2.1821 6.6608 2.2422 3.3045 0.12382 5.9487-0.91476 7.0697-2.426zm-13.787 5.6267v6.4749c-1.98e-5 0.0046-1.98e-5 0.0091 0 0.01356 7.028e-4 0.0046 0.00195 0.0091 0.0027 0.01356v0.0056c0.023174 1.7734 3.1018 3.2056 6.8936 3.2064 3.8094 2.79e-4 6.8983-1.4436 6.899-3.2253-1.61e-4 -0.0524-0.0025-0.10432-0.0082-0.15667l3.1e-5 -6.3308c-1.6656 1.7945-4.1304 2.2905-7.1263 2.1923-2.5857-0.08478-5.4636-0.61981-6.6608-2.1934z"/>
</svg>