<svg xmlns="http://www.w3.org/2000/svg" width="32" height="32" viewBox="0 0 32 32"><path d="M3.248 1.525A3.163 3.163 0 0 0 .1 4.674v12.13a3.163 3.163 0 0 0 3.148 3.15h.43v1.726a3.363 3.363 0 0 0 3.347 3.347h.963v2.045a3.566 3.566 0 0 0 3.551 3.551h16.986a3.565 3.565 0 0 0 3.551-3.55V12.68a3.565 3.565 0 0 0-3.55-3.551H26.01v-.697a3.363 3.363 0 0 0-3.348-3.348h-1.95v-.41a3.163 3.163 0 0 0-3.148-3.149z" style="fill:#ccc;stroke-linecap:round"/><path d="M3 8h18v11H3z" style="fill:#fff;stroke:none;stroke-width:1.674;stroke-dasharray:5.022,5.022" transform="translate(-.87 .58)scale(.93246)"/><path d="M3 3.157h18V8H3z" style="fill:navy;stroke:none;stroke-width:1.11076;stroke-dasharray:3.33229,3.33229" transform="translate(-.87 .58)scale(.93246)"/><path d="M4.323 3.157c-.636 0-1.154.517-1.154 1.154V17.32c0 .636.518 1.153 1.154 1.153h15.354c.636 0 1.154-.517 1.154-1.153V4.31c0-.636-.518-1.153-1.154-1.153zM19.677 19.63H4.323a2.313 2.313 0 0 1-2.31-2.31V4.31A2.313 2.313 0 0 1 4.322 2h15.354a2.313 2.313 0 0 1 2.31 2.31v13.01a2.313 2.313 0 0 1-2.31 2.31" style="fill:#000;fill-opacity:1;fill-rule:nonzero;stroke:none;stroke-width:.000723057" transform="translate(-.87 .58)scale(.93246)"/><path d="M3.17 7.073h17.66V4.311c0-.637-.517-1.154-1.153-1.154H4.323c-.636 0-1.154.517-1.154 1.154zM21.41 8.23H2.59a.58.58 0 0 1-.578-.578V4.31A2.313 2.313 0 0 1 4.323 2h15.354a2.313 2.313 0 0 1 2.31 2.31v3.342a.58.58 0 0 1-.578.578" style="fill:#000;fill-opacity:1;fill-rule:nonzero;stroke:none;stroke-width:.000723057" transform="translate(-.87 .58)scale(.93246)"/><path d="M5.372 4.257a.859.859 0 0 0 0 1.716.859.859 0 0 0 0-1.716m2.396 0a.859.859 0 0 0 0 1.716.859.859 0 0 0 0-1.716m2.395 0a.859.859 0 0 0 0 1.716.859.859 0 0 0 0-1.716" style="fill:#fff;fill-opacity:1;fill-rule:nonzero;stroke:none;stroke-width:.000723057" transform="translate(-.87 .58)scale(.93246)"/><path d="M3 8h18v11H3z" style="fill:#fff;stroke:none;stroke-width:1.674;stroke-dasharray:5.022,5.022" transform="translate(2.534 3.966)scale(1.01852)"/><path d="M3 3.157h18V8H3z" style="fill:navy;stroke:none;stroke-width:1.11076;stroke-dasharray:3.33229,3.33229" transform="translate(2.534 3.966)scale(1.01852)"/><path d="M4.323 3.157c-.636 0-1.154.517-1.154 1.154V17.32c0 .636.518 1.153 1.154 1.153h15.354c.636 0 1.154-.517 1.154-1.153V4.31c0-.636-.518-1.153-1.154-1.153zM19.677 19.63H4.323a2.313 2.313 0 0 1-2.31-2.31V4.31A2.313 2.313 0 0 1 4.322 2h15.354a2.313 2.313 0 0 1 2.31 2.31v13.01a2.313 2.313 0 0 1-2.31 2.31" style="fill:#000;fill-opacity:1;fill-rule:nonzero;stroke:none;stroke-width:.000723057" transform="translate(2.534 3.966)scale(1.01852)"/><path d="M3.17 7.073h17.66V4.311c0-.637-.517-1.154-1.153-1.154H4.323c-.636 0-1.154.517-1.154 1.154zM21.41 8.23H2.59a.58.58 0 0 1-.578-.578V4.31A2.313 2.313 0 0 1 4.323 2h15.354a2.313 2.313 0 0 1 2.31 2.31v3.342a.58.58 0 0 1-.578.578" style="fill:#000;fill-opacity:1;fill-rule:nonzero;stroke:none;stroke-width:.000723057" transform="translate(2.534 3.966)scale(1.01852)"/><path d="M5.372 4.257a.859.859 0 0 0 0 1.716.859.859 0 0 0 0-1.716m2.396 0a.859.859 0 0 0 0 1.716.859.859 0 0 0 0-1.716m2.395 0a.859.859 0 0 0 0 1.716.859.859 0 0 0 0-1.716" style="fill:#fff;fill-opacity:1;fill-rule:nonzero;stroke:none;stroke-width:.000723057" transform="translate(2.534 3.966)scale(1.01852)"/><path d="M3 8h18v11H3z" style="fill:#fff;stroke:none;stroke-width:1.674;stroke-dasharray:5.022,5.022" transform="translate(6.668 7.837)scale(1.10635)"/><path d="M3 3.157h18V8H3z" style="fill:navy;stroke:none;stroke-width:1.11076;stroke-dasharray:3.33229,3.33229" transform="translate(6.668 7.837)scale(1.10635)"/><path d="M4.323 3.157c-.636 0-1.154.517-1.154 1.154V17.32c0 .636.518 1.153 1.154 1.153h15.354c.636 0 1.154-.517 1.154-1.153V4.31c0-.636-.518-1.153-1.154-1.153zM19.677 19.63H4.323a2.313 2.313 0 0 1-2.31-2.31V4.31A2.313 2.313 0 0 1 4.322 2h15.354a2.313 2.313 0 0 1 2.31 2.31v13.01a2.313 2.313 0 0 1-2.31 2.31" style="fill:#000;fill-opacity:1;fill-rule:nonzero;stroke:none;stroke-width:.000723057" transform="translate(6.668 7.837)scale(1.10635)"/><path d="M3.17 7.073h17.66V4.311c0-.637-.517-1.154-1.153-1.154H4.323c-.636 0-1.154.517-1.154 1.154zM21.41 8.23H2.59a.58.58 0 0 1-.578-.578V4.31A2.313 2.313 0 0 1 4.323 2h15.354a2.313 2.313 0 0 1 2.31 2.31v3.342a.58.58 0 0 1-.578.578" style="fill:#000;fill-opacity:1;fill-rule:nonzero;stroke:none;stroke-width:.000723057" transform="translate(6.668 7.837)scale(1.10635)"/><path d="M5.372 4.257a.859.859 0 0 0 0 1.716.859.859 0 0 0 0-1.716m2.396 0a.859.859 0 0 0 0 1.716.859.859 0 0 0 0-1.716m2.395 0a.859.859 0 0 0 0 1.716.859.859 0 0 0 0-1.716" style="fill:#fff;fill-opacity:1;fill-rule:nonzero;stroke:none;stroke-width:.000723057" transform="translate(6.668 7.837)scale(1.10635)"/></svg>