<?xml version="1.0" encoding="UTF-8" standalone="no"?>
<!-- Created with Inkscape (http://www.inkscape.org/) -->

<svg
   width="32"
   height="32"
   viewBox="0 0 32 32"
   version="1.1"
   id="svg1"
   inkscape:version="1.4.2 (ebf0e940, 2025-05-08)"
   sodipodi:docname="accounting.svg"
   xml:space="preserve"
   xmlns:inkscape="http://www.inkscape.org/namespaces/inkscape"
   xmlns:sodipodi="http://sodipodi.sourceforge.net/DTD/sodipodi-0.dtd"
   xmlns:xlink="http://www.w3.org/1999/xlink"
   xmlns="http://www.w3.org/2000/svg"
   xmlns:svg="http://www.w3.org/2000/svg"><sodipodi:namedview
     id="namedview1"
     pagecolor="#ffffff"
     bordercolor="#000000"
     borderopacity="0.25"
     inkscape:showpageshadow="2"
     inkscape:pageopacity="0.0"
     inkscape:pagecheckerboard="true"
     inkscape:deskcolor="#d1d1d1"
     inkscape:document-units="px"
     inkscape:clip-to-page="false"
     labelstyle="default"
     inkscape:zoom="6.2515524"
     inkscape:cx="27.993047"
     inkscape:cy="40.230008"
     inkscape:window-width="1440"
     inkscape:window-height="842"
     inkscape:window-x="0"
     inkscape:window-y="30"
     inkscape:window-maximized="1"
     inkscape:current-layer="layer1"
     showgrid="true"
     guidecolor="#8800e5"
     guideopacity="0.6"
     showguides="true"><sodipodi:guide
       position="0,31"
       orientation="0,1"
       id="guide3"
       inkscape:locked="false"
       inkscape:label=""
       inkscape:color="rgb(136,0,229)" /><sodipodi:guide
       position="31,32"
       orientation="-1,0"
       id="guide4"
       inkscape:locked="false"
       inkscape:label=""
       inkscape:color="rgb(136,0,229)" /><sodipodi:guide
       position="32,1"
       orientation="0,1"
       id="guide5"
       inkscape:locked="false"
       inkscape:label=""
       inkscape:color="rgb(136,0,229)" /><sodipodi:guide
       position="1,1"
       orientation="-1,0"
       id="guide6"
       inkscape:locked="false"
       inkscape:label=""
       inkscape:color="rgb(136,0,229)" /></sodipodi:namedview><defs
     id="defs1"><linearGradient
       id="linearGradient1"
       inkscape:collect="always"><stop
         style="stop-color:#214478;stop-opacity:1"
         offset="0"
         id="stop1" /><stop
         style="stop-color:#55ddff;stop-opacity:1"
         offset="1"
         id="stop2" /></linearGradient><linearGradient
       x1="0"
       y1="0"
       x2="1"
       y2="0"
       gradientUnits="userSpaceOnUse"
       gradientTransform="matrix(2660.01,3040.01,3040.01,-2660.01,848.721,872.73)"
       spreadMethod="pad"
       id="linearGradient6"><stop
         style="stop-opacity:1;stop-color:#9a1475"
         offset="0"
         id="stop3" /><stop
         style="stop-opacity:1;stop-color:#9a1475"
         offset="0.206061"
         id="stop4" /><stop
         style="stop-opacity:1;stop-color:#5fa8e1"
         offset="0.90303"
         id="stop5" /><stop
         style="stop-opacity:1;stop-color:#5fa8e1"
         offset="1"
         id="stop6" /></linearGradient><clipPath
       clipPathUnits="userSpaceOnUse"
       id="clipPath6"><path
         d="m 1032.99,2473.45 2.67,-1181.12 1028.97,-418.439 V 2115.29 Z M 2078.26,821.18 1005.59,1257.36 c -8.227,3.34 -13.598,11.3 -13.656,20.19 l -2.735,1226.58 c 0,7.08 3.418,13.73 9.18,17.83 5.781,4.14 13.181,5.25 19.861,2.86 l 1075.43,-373.34 c 8.79,-3.05 14.67,-11.33 14.67,-20.63 V 841.41 c 0,-7.281 -3.59,-14.07 -9.65,-18.121 -3.65,-2.48 -7.93,-3.738 -12.21,-3.738 -2.79,0 -5.54,0.539 -8.22,1.629 z"
         transform="translate(0,-2.5000001e-5)"
         id="path6-47" /></clipPath><clipPath
       clipPathUnits="userSpaceOnUse"
       id="clipPath11"><path
         d="m 2129,2956.21 -1051.56,-439.44 1023.32,-346.16 1050.88,444.26 z m -34.41,-829.67 -1085.94,367.39 c -8.61,2.91 -14.548,10.85 -14.822,19.93 -0.351,9.11 5.02,17.44 13.402,20.92 l 1112.48,464.91 c 4.84,2.05 10.39,2.27 15.35,0.56 L 3220.37,2638 c 8.67,-2.89 14.61,-10.79 14.94,-19.88 0.35,-9.1 -4.96,-17.43 -13.36,-20.97 L 2110.12,2127.11 c -2.74,-1.15 -5.59,-1.74 -8.52,-1.74 -2.38,0 -4.72,0.4 -7.01,1.17 z"
         transform="translate(0,-2.5000001e-5)"
         id="path11-13" /></clipPath><clipPath
       clipPathUnits="userSpaceOnUse"
       id="clipPath15"><path
         d="m 2129,2956.21 -1051.56,-439.44 1023.32,-346.16 1050.88,444.26 z m -34.41,-829.67 -1085.94,367.39 c -8.61,2.91 -14.548,10.85 -14.822,19.93 -0.351,9.11 5.02,17.44 13.402,20.92 l 1112.48,464.91 c 4.84,2.05 10.39,2.27 15.35,0.56 L 3220.37,2638 c 8.67,-2.89 14.61,-10.79 14.94,-19.88 0.35,-9.1 -4.96,-17.43 -13.36,-20.97 L 2110.12,2127.11 c -2.74,-1.15 -5.59,-1.74 -8.52,-1.74 -2.38,0 -4.72,0.4 -7.01,1.17 z"
         transform="translate(0,-2.5000001e-5)"
         id="path15-84" /></clipPath><linearGradient
       x1="0"
       y1="0"
       x2="1"
       y2="0"
       gradientUnits="userSpaceOnUse"
       gradientTransform="matrix(2659.99,3039.99,3039.99,-2659.99,1445.38,350.66)"
       spreadMethod="pad"
       id="linearGradient20"><stop
         style="stop-opacity:1;stop-color:#9a1475"
         offset="0"
         id="stop17" /><stop
         style="stop-opacity:1;stop-color:#9a1475"
         offset="0.206061"
         id="stop18" /><stop
         style="stop-opacity:1;stop-color:#5fa8e1"
         offset="0.90303"
         id="stop19" /><stop
         style="stop-opacity:1;stop-color:#5fa8e1"
         offset="1"
         id="stop20" /></linearGradient><clipPath
       clipPathUnits="userSpaceOnUse"
       id="clipPath20"><path
         d="M 3200.04,2582.57 2118.4,2123.48 2109.61,863.961 3200.55,1352.69 Z M 2089.63,814.93 c -10.68,0 -19.3,8.609 -19.3,19.23 0,1.692 0.22,3.309 0.63,4.852 l 9.08,1297.398 c 0.06,7.68 4.61,14.59 11.7,17.58 l 1120.06,475.35 c 5.88,2.48 12.73,1.86 18.1,-1.68 5.41,-3.57 8.62,-9.59 8.62,-16.04 l 0.5,-1271.4 c 0,-7.6 -4.45,-14.47 -11.34,-17.56 L 2098.07,816.609 c -2.5,-1.14 -5.2,-1.679 -7.87,-1.679 z"
         transform="translate(0,-2.5000001e-5)"
         id="path20-80" /></clipPath><linearGradient
       x1="0"
       y1="0"
       x2="1"
       y2="0"
       gradientUnits="userSpaceOnUse"
       gradientTransform="matrix(2660,3040,3040,-2660,705.928,997.68)"
       spreadMethod="pad"
       id="linearGradient24"><stop
         style="stop-opacity:1;stop-color:#9a1475"
         offset="0"
         id="stop21" /><stop
         style="stop-opacity:1;stop-color:#9a1475"
         offset="0.206061"
         id="stop22" /><stop
         style="stop-opacity:1;stop-color:#5fa8e1"
         offset="0.90303"
         id="stop23" /><stop
         style="stop-opacity:1;stop-color:#5fa8e1"
         offset="1"
         id="stop24" /></linearGradient><clipPath
       clipPathUnits="userSpaceOnUse"
       id="clipPath24"><path
         d="m 1504.22,2375.86 193.96,-67.71 953.17,444.52 -161.15,56.4 z m 195,-110.24 c -2.11,0 -4.28,0.34 -6.33,1.09 l -250.84,87.52 c -7.81,2.73 -13.18,10.15 -13.53,18.66 -0.34,8.5 4.51,16.33 12.05,19.7 l 1041.05,457.36 c 4.45,1.99 9.53,2.17 14.16,0.57 l 216.08,-75.64 c 7.75,-2.74 13.12,-10.05 13.45,-18.44 0.41,-8.44 -4.16,-16.27 -11.64,-19.75 L 1707.38,2267.45 c -2.58,-1.25 -5.37,-1.83 -8.16,-1.83 z"
         transform="translate(0,-2.5000001e-5)"
         id="path24-46" /></clipPath><linearGradient
       x1="0"
       y1="0"
       x2="1"
       y2="0"
       gradientUnits="userSpaceOnUse"
       gradientTransform="matrix(2660,3040,3040,-2660,675.02,1024.71)"
       spreadMethod="pad"
       id="linearGradient29"><stop
         style="stop-opacity:1;stop-color:#9a1475"
         offset="0"
         id="stop26" /><stop
         style="stop-opacity:1;stop-color:#9a1475"
         offset="0.206061"
         id="stop27" /><stop
         style="stop-opacity:1;stop-color:#5fa8e1"
         offset="0.90303"
         id="stop28" /><stop
         style="stop-opacity:1;stop-color:#5fa8e1"
         offset="1"
         id="stop29" /></linearGradient><clipPath
       clipPathUnits="userSpaceOnUse"
       id="clipPath29"><path
         d="m 1483.77,2336.79 c -1.43,0.25 -2.91,0.5 -4.34,0.76 v -496.5 l 182,-76.66 v 506.28 c -68.97,23.16 -125.71,44.28 -177.66,66.12 z m 188.91,-617.15 -218.81,92.18 c -6.86,2.89 -11.31,9.57 -11.31,17 v 530.6 c 0,5.47 2.46,10.7 6.68,14.18 4.24,3.52 9.76,4.94 15.19,3.91 4.28,-0.79 8.56,-1.49 12.78,-2.19 5.19,-0.86 10.33,-1.72 15.47,-2.71 1.27,-0.26 2.46,-0.63 3.61,-1.12 54.69,-23.01 114.84,-45.27 189.39,-70.05 7.54,-2.51 12.62,-9.56 12.62,-17.49 v -547.33 c 0,-6.16 -3.14,-11.93 -8.28,-15.36 -3.01,-2.02 -6.62,-3.08 -10.16,-3.08 -2.46,0 -4.84,0.48 -7.18,1.46 z"
         transform="translate(0,-2.5000001e-5)"
         id="path29-0" /></clipPath><linearGradient
       x1="0"
       y1="0"
       x2="1"
       y2="0"
       gradientUnits="userSpaceOnUse"
       gradientTransform="matrix(2660,3040,3040,-2660,536.289,1146.11)"
       spreadMethod="pad"
       id="linearGradient33"><stop
         style="stop-opacity:1;stop-color:#9a1475"
         offset="0"
         id="stop30" /><stop
         style="stop-opacity:1;stop-color:#9a1475"
         offset="0.206061"
         id="stop31" /><stop
         style="stop-opacity:1;stop-color:#5fa8e1"
         offset="0.90303"
         id="stop32" /><stop
         style="stop-opacity:1;stop-color:#5fa8e1"
         offset="1"
         id="stop33" /></linearGradient><clipPath
       clipPathUnits="userSpaceOnUse"
       id="clipPath33"><path
         d="m 1486.17,2423.35 c -126.89,65.19 -265.33,143.57 -415.56,221.43 L 836.66,2280.41 c -2.91,-6.56 -1.992,-14.33 2.461,-21.63 4.453,-7.37 12.09,-13.65 21.113,-17.41 l 998.946,-454.06 c 4.55,-1.82 10.16,-0.57 15.62,2.91 5.49,3.48 10.86,9.13 14.79,16.21 l 232.46,328.41 c -70.57,38.7 -147.91,81.01 -231.93,129.02 -123.48,41.78 -257.01,81.34 -403.95,159.49 z"
         transform="translate(0,-2.5000001e-5)"
         id="path33-3" /></clipPath><linearGradient
       x1="0"
       y1="0"
       x2="1"
       y2="0"
       gradientUnits="userSpaceOnUse"
       gradientTransform="matrix(2659.99,3039.99,3039.99,-2659.99,529.063,1152.44)"
       spreadMethod="pad"
       id="linearGradient37"><stop
         style="stop-opacity:1;stop-color:#9a1475"
         offset="0"
         id="stop34" /><stop
         style="stop-opacity:1;stop-color:#9a1475"
         offset="0.206061"
         id="stop35" /><stop
         style="stop-opacity:1;stop-color:#5fa8e1"
         offset="0.90303"
         id="stop36" /><stop
         style="stop-opacity:1;stop-color:#5fa8e1"
         offset="1"
         id="stop37" /></linearGradient><clipPath
       clipPathUnits="userSpaceOnUse"
       id="clipPath37"><path
         d="m 1873.16,1813 -1002.008,453.02 232.678,361.87 c -19.47,9.93 -39.06,19.86 -58.93,29.68 -2.91,1.31 -5.7,2.34 -8.67,3.66 L 801.621,2294.85 c -5.781,-13.01 -3.711,-28.65 5.469,-43.38 9.199,-14.68 24.609,-27.28 42.754,-34.94 l 995.686,-455.02 c 9.08,-3.65 20.21,-1.14 30.93,5.94 10.81,7.07 21.35,18.54 29.18,32.7 l 231.47,326.64 c -9.92,5.42 -20.2,10.85 -30.47,16.33 z"
         transform="translate(0,-2.5000001e-5)"
         id="path37-2" /></clipPath><linearGradient
       x1="0"
       y1="0"
       x2="1"
       y2="0"
       gradientUnits="userSpaceOnUse"
       gradientTransform="matrix(2660,3040,3040,-2660,1270.99,503.25)"
       spreadMethod="pad"
       id="linearGradient41"><stop
         style="stop-opacity:1;stop-color:#9a1475"
         offset="0"
         id="stop38" /><stop
         style="stop-opacity:1;stop-color:#9a1475"
         offset="0.206061"
         id="stop39" /><stop
         style="stop-opacity:1;stop-color:#5fa8e1"
         offset="0.90303"
         id="stop40" /><stop
         style="stop-opacity:1;stop-color:#5fa8e1"
         offset="1"
         id="stop41" /></linearGradient><clipPath
       clipPathUnits="userSpaceOnUse"
       id="clipPath41"><path
         d="m 2777.21,2398.97 c 135.23,52.64 284,116.29 443.38,176.92 l 140.89,-376.25 c 1.31,-6.57 -1.27,-14.05 -7.14,-20.84 -5.88,-6.74 -14.61,-12.33 -24.09,-15.35 L 2267.05,1771.9 c -4.86,-1.66 -9.94,0.05 -14.28,4.05 -4.39,4.06 -8.04,10.39 -10.04,18.16 l -138.26,367.11 c 76.66,34.47 160.57,71.76 252.13,113.89 127.13,31.33 263.05,59.02 420.61,123.86 z"
         transform="translate(0,-2.5000001e-5)"
         id="path41-69" /></clipPath><linearGradient
       x1="0"
       y1="0"
       x2="1"
       y2="0"
       gradientUnits="userSpaceOnUse"
       gradientTransform="matrix(2659.99,3039.99,3039.99,-2659.99,1278.68,496.53)"
       spreadMethod="pad"
       id="linearGradient45"><stop
         style="stop-opacity:1;stop-color:#9a1475"
         offset="0"
         id="stop42" /><stop
         style="stop-opacity:1;stop-color:#9a1475"
         offset="0.206061"
         id="stop43" /><stop
         style="stop-opacity:1;stop-color:#5fa8e1"
         offset="0.90303"
         id="stop44" /><stop
         style="stop-opacity:1;stop-color:#5fa8e1"
         offset="1"
         id="stop45" /></linearGradient><clipPath
       clipPathUnits="userSpaceOnUse"
       id="clipPath45"><path
         d="m 2260.14,1799.99 1065.25,388.34 -139.96,374.6 c 20.55,7.59 41.27,15.24 62.17,22.71 3.08,0.92 5.99,1.66 9.02,2.63 l 141.45,-377.33 c 2.67,-13.13 -2.8,-28.09 -14.85,-41.67 -12.05,-13.65 -29.51,-24.66 -48.57,-30.82 l -1061.1,-394.81 c -9.59,-3.37 -19.64,0.06 -28.14,8.16 -8.57,8.23 -15.76,21.07 -19.69,36.66 l -137.63,365.56 c 10.89,4.85 21.85,9.71 33.04,14.62 z"
         transform="translate(0,-2.5000001e-5)"
         id="path45-41" /></clipPath><linearGradient
       x1="0"
       y1="0"
       x2="1"
       y2="0"
       gradientUnits="userSpaceOnUse"
       gradientTransform="matrix(2660.01,3040.01,3040.01,-2660.01,75.7129,1549.1)"
       spreadMethod="pad"
       id="linearGradient49"><stop
         style="stop-opacity:1;stop-color:#9a1475"
         offset="0"
         id="stop46" /><stop
         style="stop-opacity:1;stop-color:#9a1475"
         offset="0.206061"
         id="stop47" /><stop
         style="stop-opacity:1;stop-color:#5fa8e1"
         offset="0.90303"
         id="stop48" /><stop
         style="stop-opacity:1;stop-color:#5fa8e1"
         offset="1"
         id="stop49" /></linearGradient><clipPath
       clipPathUnits="userSpaceOnUse"
       id="clipPath49"><path
         d="m 2019.92,2997.74 c 39.61,17.47 78.15,34.99 115.65,52.23 l -428.36,359.86 c -3.71,4.35 -9.3,7.31 -15.41,8.69 -6.12,1.37 -12.74,1.02 -18.44,-1.27 L 596.387,2989.07 c -8.555,-3.43 -15.41,-8.28 -19.004,-13.65 -3.594,-5.36 -3.653,-10.68 -0.176,-14.85 l 463.923,-384.34 c 367.82,159.03 694.05,298.09 978.79,421.51 z"
         transform="translate(0,-2.5000001e-5)"
         id="path49-37" /></clipPath><linearGradient
       x1="0"
       y1="0"
       x2="1"
       y2="0"
       gradientUnits="userSpaceOnUse"
       gradientTransform="matrix(2660,3040,3040,-2660,69.4141,1554.63)"
       spreadMethod="pad"
       id="linearGradient53"><stop
         style="stop-opacity:1;stop-color:#9a1475"
         offset="0"
         id="stop50" /><stop
         style="stop-opacity:1;stop-color:#9a1475"
         offset="0.206061"
         id="stop51" /><stop
         style="stop-opacity:1;stop-color:#5fa8e1"
         offset="0.90303"
         id="stop52" /><stop
         style="stop-opacity:1;stop-color:#5fa8e1"
         offset="1"
         id="stop53" /></linearGradient><clipPath
       clipPathUnits="userSpaceOnUse"
       id="clipPath53"><path
         d="m 1072.3,2589.53 -462.945,383.72 1077.185,428.31 429.4,-360.55 c 13.12,6.05 26.21,11.88 39.16,17.86 L 1727.6,3418 c -7.09,8.28 -18.05,14.61 -30.55,17.42 -12.5,2.85 -25.62,1.99 -36.6,-2.35 L 583.613,3004.93 c -17.011,-6.73 -30.781,-16.6 -38.144,-27.34 -7.422,-10.79 -7.637,-21.52 -0.684,-29.86 L 1009.8,2562.69 c 20.96,8.97 41.78,17.99 62.5,26.84 z"
         transform="translate(0,-2.5000001e-5)"
         id="path53-88" /></clipPath><linearGradient
       x1="0"
       y1="0"
       x2="1"
       y2="0"
       gradientUnits="userSpaceOnUse"
       gradientTransform="matrix(2660.01,3040.01,3040.01,-2660.01,951.182,783.07)"
       spreadMethod="pad"
       id="linearGradient57"><stop
         style="stop-opacity:1;stop-color:#9a1475"
         offset="0"
         id="stop54" /><stop
         style="stop-opacity:1;stop-color:#9a1475"
         offset="0.206061"
         id="stop55" /><stop
         style="stop-opacity:1;stop-color:#5fa8e1"
         offset="0.90303"
         id="stop56" /><stop
         style="stop-opacity:1;stop-color:#5fa8e1"
         offset="1"
         id="stop57" /></linearGradient><clipPath
       clipPathUnits="userSpaceOnUse"
       id="clipPath57"><path
         d="m 2232.05,2997.74 c -39.57,17.47 -78.09,34.99 -115.66,52.23 l 428.49,359.86 c 3.6,4.35 9.24,7.31 15.35,8.69 6.12,1.37 12.68,1.02 18.44,-1.27 L 3655.7,2989.07 c 8.44,-3.43 15.3,-8.28 18.95,-13.65 3.59,-5.36 3.71,-10.68 0.17,-14.85 l -463.94,-384.34 c -367.79,159.03 -694.02,298.09 -978.83,421.51 z"
         transform="translate(0,-2.5000001e-5)"
         id="path57-38" /></clipPath><linearGradient
       x1="0"
       y1="0"
       x2="1"
       y2="0"
       gradientUnits="userSpaceOnUse"
       gradientTransform="matrix(2660,3040,3040,-2660,955.85,778.99)"
       spreadMethod="pad"
       id="linearGradient61"><stop
         style="stop-opacity:1;stop-color:#9a1475"
         offset="0"
         id="stop58" /><stop
         style="stop-opacity:1;stop-color:#9a1475"
         offset="0.206061"
         id="stop59" /><stop
         style="stop-opacity:1;stop-color:#5fa8e1"
         offset="0.90303"
         id="stop60" /><stop
         style="stop-opacity:1;stop-color:#5fa8e1"
         offset="1"
         id="stop61" /></linearGradient><clipPath
       clipPathUnits="userSpaceOnUse"
       id="clipPath61"><path
         d="m 3179.73,2589.53 462.95,383.72 -1077.25,428.31 -429.28,-360.55 c -13.24,6.05 -26.27,11.88 -39.22,17.86 l 427.5,359.13 c 7.09,8.28 18.05,14.61 30.55,17.42 12.5,2.85 25.63,1.99 36.58,-2.35 l 1076.8,-428.14 c 17.07,-6.73 30.84,-16.6 38.2,-27.34 7.37,-10.79 7.64,-21.52 0.74,-29.86 l -465.01,-385.04 c -20.96,8.97 -41.84,17.99 -62.56,26.84 z"
         transform="translate(0,-2.5000001e-5)"
         id="path61-1" /></clipPath><linearGradient
       x1="0"
       y1="0"
       x2="1"
       y2="0"
       gradientUnits="userSpaceOnUse"
       gradientTransform="matrix(2660,3040,3040,-2660,721.055,984.45)"
       spreadMethod="pad"
       id="linearGradient66"><stop
         style="stop-opacity:1;stop-color:#9a1475"
         offset="0"
         id="stop63" /><stop
         style="stop-opacity:1;stop-color:#9a1475"
         offset="0.206061"
         id="stop64" /><stop
         style="stop-opacity:1;stop-color:#5fa8e1"
         offset="0.90303"
         id="stop65" /><stop
         style="stop-opacity:1;stop-color:#5fa8e1"
         offset="1"
         id="stop66" /></linearGradient><clipPath
       clipPathUnits="userSpaceOnUse"
       id="clipPath66"><path
         d="m 2131.58,3062.99 c -19.69,-0.23 -38.59,-3.6 -52.52,-9.42 L 1004.9,2614.3 c -13.884,-5.65 -21.697,-13.19 -21.697,-21.01 0,-7.81 7.813,-15.35 21.697,-20.83 l 1074.16,-432.99 c 14.49,-5.94 33.52,-9.02 52.52,-9.08 19.01,-0.11 38.01,2.68 52.52,8.56 l 1074.22,439.39 c 13.87,5.82 21.7,13.64 21.7,21.8 0,8.17 -7.83,15.99 -21.7,21.69 L 2184.1,3054.77 c -13.87,5.48 -32.77,8.45 -52.52,8.22 z m 0,-30.14 1074.16,-432.88 -1074.16,-439.43 -1074.12,432.98 1074.12,439.33"
         transform="translate(0,-2.5000001e-5)"
         id="path66-53" /></clipPath><linearGradient
       inkscape:collect="always"
       xlink:href="#linearGradient1"
       id="linearGradient2"
       x1="6.6315045"
       y1="4.8631034"
       x2="27.85232"
       y2="37.224846"
       gradientUnits="userSpaceOnUse"
       gradientTransform="rotate(0.35849115,-146.47554,-325.7115)" /></defs><g
     inkscape:label="Layer 1"
     inkscape:groupmode="layer"
     id="layer1"><path
       id="path17"
       style="baseline-shift:baseline;display:inline;overflow:visible;vector-effect:none;fill:#ffffff;stroke-linejoin:round;enable-background:accumulate;stop-color:#000000"
       d="M 9.6523438,1.0605469 C 9.4494764,1.0691634 9.2719609,1.1995987 9.203125,1.390625 L 0.95117188,23.916016 c -0.0946537,0.258312 0.0371285,0.544567 0.29492192,0.640625 l 18.1621092,6.789062 c 0.07406,0.02803 0.153721,0.03807 0.232422,0.0293 l 11.072266,-1.304688 c 0.486494,-0.04204 0.82118,-0.727941 0.8125,-1.53125 V 7.3574219 c 0,-1.3565622 -1.108881,-2.4628907 -2.464844,-2.4628907 H 27.28125 c -1.355963,0 -2.462891,1.1069269 -2.462891,2.4628907 V 26.798828 c -0.54896,-0.07485 -0.910831,-0.226869 -0.777342,-0.96289 v -12.00586 c 0,-1.03546 -0.850173,-1.870236 -1.876954,-1.884766 l -2.912109,-0.04101 c -1.043813,-0.01477 -1.892578,0.849305 -1.892578,1.884765 v 10.263672 c -8.2e-5,0.04216 -0.953006,0.03405 -0.841534,-0.874805 l 0.08372,-5.879106 c 0.01077,-0.756466 -0.628667,-1.370419 -1.376953,-1.378906 l -3.632812,-0.04102 c -0.761908,-0.0086 -1.384766,0.623702 -1.384766,1.378906 v 4.064454 c -3.84e-4,0.09073 0.02392,0.179844 0.07031,0.257812 L 8.5019531,20.929688 12.880859,8.90625 l 6.679688,2.242188 c 0.253678,0.08463 0.529044,-0.04531 0.625,-0.294922 L 22.037109,6.0527344 C 22.138261,5.7916024 22.005269,5.4983138 21.742188,5.4023438 L 9.84375,1.0917969 C 9.7825987,1.0689889 9.7175739,1.0583726 9.6523438,1.0605469 Z m 0.3183593,1.140625 10.9511719,3.9667969 -1.496094,3.8789062 -6.6875,-2.2441406 C 12.48124,7.716457 12.202269,7.8507445 12.109375,8.1054688 L 7.390625,21.056641 c -0.094265,0.259418 0.039486,0.546152 0.2988281,0.640625 l 20.8222659,7.625 -8.867188,1.044922 L 2.0605469,23.794922 Z M 27.28125,5.8945312 h 1.779297 c 0.819683,0 1.464844,0.6438052 1.464844,1.4628907 V 27.863281 L 25.818359,26.427734 V 7.3574219 c 0,-0.8196839 0.643208,-1.4628906 1.462891,-1.4628907 z m -8.044922,7.0097658 2.91211,0.04101 c 0.506596,0.0072 0.892578,0.386696 0.892578,0.884766 v 11.324219 l -4.681641,-1.46875 v -9.896485 c 0,-0.49807 0.387391,-0.891693 0.876953,-0.884765 z m -7.65625,3.974609 3.634766,0.04102 c 0.22616,0.0026 0.386718,0.160942 0.386718,0.378906 v 5.113281 l -4.394531,-1.451171 v -3.703126 c 0,-0.219301 0.160505,-0.381305 0.373047,-0.378906 z"
       sodipodi:nodetypes="ccccccccssssccsccsccsccscccccccccccccccccccccsssccssccsccscccsccsccc" /><path
       style="baseline-shift:baseline;display:inline;overflow:visible;vector-effect:none;fill:#f17700;stroke-linejoin:round;enable-background:accumulate;stop-color:#000000"
       d="m 27.281219,5.3945312 c -1.087823,0 -1.96289,0.8750669 -1.96289,1.9628907 V 27.061665 l 5.707071,2.073161 0,-21.7774041 c 0,-1.0878238 -0.87702,-1.9628907 -1.964843,-1.9628907 z m -8.037307,7.0095668 c -0.766688,-0.01085 -1.384766,0.618001 -1.384766,1.384766 v 10.596599 l 5.682099,1.993672 V 13.830078 c 0,-0.766765 -0.618078,-1.373917 -1.384766,-1.384766 z m -7.657974,3.974808 c -0.487225,-0.0055 -0.878907,0.391652 -0.878907,0.878906 v 4.537561 l 5.393601,1.781448 v -6.277795 c 0,-0.487254 -0.393637,-0.87338 -0.88086,-0.878906 z"
       id="path16"
       sodipodi:nodetypes="ssccsssssccssscsccssc" /><path
       style="fill:url(#linearGradient2);fill-opacity:1;stroke:none;stroke-width:1;stroke-linejoin:round;stroke-dasharray:none;stroke-opacity:1"
       d="M 30.761971,29.672305 7.9671997,21.327254 12.684997,8.3752438 19.826431,10.772891 21.677918,5.9713108 9.7803335,1.6610582 1.527289,24.187351 19.689268,30.977196 Z"
       id="path1"
       sodipodi:nodetypes="ccccccccc" /></g></svg>
