<svg xmlns="http://www.w3.org/2000/svg" xml:space="preserve" width="32" height="32" viewBox="0 0 32 32"><path d="M15.684 1.43c-2.204.113-3.467 1.22-3.645 1.38-.721.497-1.026 1.359-.977 1.946-.023.027-.085.029-.105.057-.233.322-.276.688-.28.71-.082.534-.03 1.116.02 1.71-.056.092-.212.147-.252.238a2.64 2.64 0 0 0-.209 1.175c.016.426.093.825.301 1.217.133.251.416.496.76.672.325 1.157.89 2.152 1.678 2.93a8 8 0 0 0-.924.14h-.002c-.055.013-.056.022-.098.036l-.006-.004s-5.758.968-6.994 5.65l-1.467 5.547a1.09 1.09 0 0 0 .319 1.084 17.6 17.6 0 0 0 3.281 2.367 1.09 1.09 0 0 0 1.031.01 1.1 1.1 0 0 0 .46.734 18.42 18.42 0 0 0 14.864.002 1.1 1.1 0 0 0 .461-.738 1.09 1.09 0 0 0 1.032-.008 17.6 17.6 0 0 0 3.275-2.363 1.09 1.09 0 0 0 .318-1.084l-1.464-5.53v-.001c-.532-2.01-2.042-3.332-3.485-4.174-1.441-.841-2.872-1.25-3.568-1.42l-.004-.002c-.292-.073-.487-.116-.545-.129l-.025-.006c.9-.811 1.558-1.851 1.906-3.133.385-.168.7-.428.844-.697.208-.392.285-.792.3-1.217a2.6 2.6 0 0 0-.26-1.283c-.062-.125-.189-.247-.296-.373l.117-1.057a1.1 1.1 0 0 0-.025-.398c-.52-2.04-1.949-3.149-3.155-3.6-1.206-.45-2.289-.367-2.289-.367l.18.002a7.4 7.4 0 0 0-1.072-.023m-3.9 4.199 1.728.492-.143.336-.03.041z" style="fill:#ccc;fill-opacity:1;fill-rule:nonzero;stroke:none;stroke-width:.133334"/><g style="stroke-width:91.1688"><path d="M467.555-262.056 290.25-327.509c-132.774-43.693-106.787-127.773-106.787-127.773l-133.907 7.706H47.41l-135-5.293s27.066 81.667-105.707 125.36l-177.307 65.507L65.97-166.35zm-779.133-659c1.893 54.68-9.28 102.347-37.533 103.32-28.254.987-48.734-42.693-50.614-97.373-1.893-54.693 19.8-99.827 48.054-100.8 28.253-.973 38.2 40.16 40.093 94.853" style="fill:#dbb391;fill-opacity:1;fill-rule:nonzero;stroke:none;stroke-width:12.1559" transform="matrix(.01126 0 0 .01069 15.822 18.378)"/><path d="M406.435-932.042c-1.893 54.68 9.28 102.346 37.534 103.32 28.253.986 48.72-42.694 50.613-97.387 1.893-54.68-19.813-99.813-48.067-100.787-28.253-.973-38.2 40.16-40.08 94.854" style="fill:#eed0ae;fill-opacity:1;fill-rule:nonzero;stroke:none;stroke-width:12.1559" transform="matrix(.01126 0 0 .01069 15.822 18.378)"/><path d="M428.782-936.122c0 286.893-171.92 519.466-383.987 519.466-212.08 0-384-232.573-384-519.466s171.92-531.414 384-531.414c212.067 0 383.987 244.52 383.987 531.414" style="fill:#f0d2af;fill-opacity:1;fill-rule:nonzero;stroke:none;stroke-width:12.1559" transform="matrix(.01126 0 0 .01069 15.822 18.378)"/><path d="M48.222-1467.536v1050.88c-211.027 1.814-387.427-226.933-387.427-512.573 0-291.787 161.667-533.267 387.427-538.307" style="fill:#ddb594;fill-opacity:1;fill-rule:nonzero;stroke:none;stroke-width:12.1559" transform="matrix(.01126 0 0 .01069 15.822 18.378)"/><path d="m48.222-416.656-189.093 153.414-229.734 1.24s155.307-55.987 176.454-65.187c19.28-8.373 118.173-39.827 107.986-120.453 0 0 60.467 31.266 134.387 30.986" style="fill:#cfa688;fill-opacity:1;fill-rule:nonzero;stroke:none;stroke-width:12.1559" transform="matrix(.01126 0 0 .01069 15.822 18.378)"/><path d="M292.622-236.296 48.515 747.678-195.35-235.296l244.213-12.666z" style="fill:#feffff;fill-opacity:1;fill-rule:nonzero;stroke:none;stroke-width:12.1559" transform="matrix(.01126 0 0 .01069 15.822 18.378)"/><path d="M-160.018-34.576h-6.187l-48.106-193.186 22.026 4.826 43.8 176.56z" style="fill:#e4e4e3;fill-opacity:1;fill-rule:nonzero;stroke:none;stroke-width:12.1559" transform="matrix(.01126 0 0 .01069 15.822 18.378)"/><path d="m-164.951-29.55-1.254-5.026h6.187zm-70.334-282.44-6.04-24.24 107.627-25.452 3.44 2.2c-25.573 18.44-54.4 28.173-63.893 32.293-.013 0-.013.013-.013.013z" style="fill:#c68994;fill-opacity:1;fill-rule:nonzero;stroke:none;stroke-width:12.1559" transform="matrix(.01126 0 0 .01069 15.822 18.378)"/><path d="m-192.285-222.936-22.026-4.826-8.734-35.04 82.174-.44 70.946-57.56 114.027 73.08-239.453 12.426zm-42.866-88.506-.134-.547 41.12-15.187c-5.733 2.494-21.32 8.414-40.986 15.734" style="fill:#c29f82;fill-opacity:1;fill-rule:nonzero;stroke:none;stroke-width:12.1559" transform="matrix(.01126 0 0 .01069 15.822 18.378)"/><path d="m-223.045-262.802-12.106-48.64c19.666-7.32 35.253-13.24 40.986-15.734 0 0 0-.013.013-.013 9.493-4.12 38.32-13.853 63.893-32.293l60.334 38.68-70.947 57.56z" style="fill:#b7947a;fill-opacity:1;fill-rule:nonzero;stroke:none;stroke-width:12.1559" transform="matrix(.01126 0 0 .01069 15.822 18.378)"/><path d="m-148.485-46.376-43.8-176.56-3.066-12.36 239.453-12.426 2.733 1.76z" style="fill:#e4e4e5;fill-opacity:1;fill-rule:nonzero;stroke:none;stroke-width:12.1559" transform="matrix(.01126 0 0 .01069 15.822 18.378)"/><path d="m255.982-34.576-10.693-10.933 43.133-173.853 21.013-5.014-47.266 189.8z" style="fill:#e4e4e3;fill-opacity:1;fill-rule:nonzero;stroke:none;stroke-width:12.1559" transform="matrix(.01126 0 0 .01069 15.822 18.378)"/><path d="m260.915-29.55-4.933-5.026h6.187zm70.427-282.786-41.093-15.173c-27.907-9.173-48.8-20.147-64.387-31.733l3.8-2.44 107.627 25.453z" style="fill:#c68994;fill-opacity:1;fill-rule:nonzero;stroke:none;stroke-width:12.1559" transform="matrix(.01126 0 0 .01069 15.822 18.378)"/><path d="m288.422-219.362 4.2-16.934-240.6-11.52 173.84-111.426c15.587 11.586 36.48 22.56 64.387 31.733l41.093 15.173-21.907 87.96z" style="fill:#c29f82;fill-opacity:1;fill-rule:nonzero;stroke:none;stroke-width:12.1559" transform="matrix(.01126 0 0 .01069 15.822 18.378)"/><path d="M245.289-45.51 49.129-245.961l2.893-1.854 240.6 11.52-4.2 16.934z" style="fill:#e4e4e5;fill-opacity:1;fill-rule:nonzero;stroke:none;stroke-width:12.1559" transform="matrix(.01126 0 0 .01069 15.822 18.378)"/><path d="M95.849-176.296c-1.814 3.507-9.507 6.147-17.32 6.147H26.622c-7.827 0-15.52-2.64-17.32-6.147l-29.707-57.76c-5.773-11.226 2.12-21.733 18.52-21.733h108.907c16.413 0 24.307 10.507 18.52 21.733z" style="fill:#f26972;fill-opacity:1;fill-rule:nonzero;stroke:none;stroke-width:12.1559" transform="matrix(.01126 0 0 .01069 15.822 18.378)"/><path d="M188.342 895.172H-83.485l62.8-727.977 29.707-344.21h86.827l30.72 356.03z" style="fill:#f26972;fill-opacity:1;fill-rule:nonzero;stroke:none;stroke-width:12.1559" transform="matrix(.01126 0 0 .01069 15.822 18.378)"/><path d="m315.223-346.135 1.746 191.492-268.32 874.881-.628-2.004v-1.357l-274.32-877.186-99.945-184s-455.694 94.027-546 454.52l-130.418 519.184a1467.4 1467.4 0 0 0 273.396 207.843c3.174-25.04 7.969-50.871 15.301-71.093l125.12-302.286-16.163 438.838A1467.4 1467.4 0 0 0 16 1040.584 1467.4 1467.4 0 0 0 636.938 902.73L620.78 463.705l125.201 302.453c7.322 20.198 12.157 46.022 15.348 71.043a1467.4 1467.4 0 0 0 272.918-207.406L904.223 112.21c-90.294-360.493-589-458.346-589-458.346" style="fill:#4b6a81;fill-opacity:1;fill-rule:nonzero;stroke:none;stroke-width:12.1559" transform="matrix(.01126 0 0 .01069 15.822 18.378)"/><path d="M49.129-259.99 260.915-43.575l78.88-295.68-130.186-36.453z" style="fill:#feffff;fill-opacity:1;fill-rule:nonzero;stroke:none;stroke-width:12.1559" transform="matrix(.01126 0 0 .01069 15.822 18.378)"/><path d="M398.969 54.984H277.755l41.08 64.2L48.65 720.224l219.253-964.533 25.293-108s100.92 24.04 135.414 38.107z" style="fill:#c0beba;fill-opacity:1;fill-rule:nonzero;stroke:none;stroke-width:12.1559" transform="matrix(.01126 0 0 .01069 15.822 18.378)"/><path d="M48.835-259.99-162.938-43.575l-76.387-316.693 124.84-10.32z" style="fill:#feffff;fill-opacity:1;fill-rule:nonzero;stroke:none;stroke-width:12.1559" transform="matrix(.01126 0 0 .01069 15.822 18.378)"/><path d="m48.649 720.238-.12-.307-.053-.107-266.24-620.653 41.066-64.187H-297.91l-30.294-377.293c4.054-2.013 8.494-4.28 13.587-5.467 61.133-14.24 125.867-16.666 125.867-16.666l22.133 101.106L48.53 719.624l.04.2z" style="fill:#c0beba;fill-opacity:1;fill-rule:nonzero;stroke:none;stroke-width:12.1559" transform="matrix(.01126 0 0 .01069 15.822 18.378)"/><path d="M-299.111-1172.549s140.48-213.453 444.853 12.667c0 0 161.947 124.76 245.84 20.466 0 0 19.4 157.667 24.653 252.707l5.534 49.947c12.026-151.307 34.44-351.627 34.44-351.627-76.814-317.987-382.654-294.6-382.654-294.6-229.746-22.653-354.12 106.733-354.12 106.733-84.146 57.014-30.733 143.28-30.733 143.28-46.827 4.387-50.493 41.667-50.493 41.667-10.48 66.667 3.653 201.56 17.626 304.48l12.72 60.64c1.454-27.027 13.32-254.72 32.334-346.36" style="fill:#a78357;fill-opacity:1;fill-rule:nonzero;stroke:none;stroke-width:12.1559" transform="matrix(.01126 0 0 .01069 15.822 18.378)"/></g></svg>