<svg xmlns="http://www.w3.org/2000/svg" width="32" height="32" viewBox="0 0 32 32"><path d="M16.114 1.024c-.459 0-.89.205-1.164.552l-.507.647c-.254.323-.53.638-.823.932-1.38 1.393-3.718 3.031-7.463 3.031-.327 0-.67-.013-1.013-.039L4.498 6.1c-.8-.06-1.498.506-1.557 1.261l-.051.663c-.014.169-.091 1.214-.02 2.943.067 1.598.281 4.027.952 6.624.521 2.018 1.24 3.853 2.162 5.477q.146.155.336.26a1.3 1.3 0 0 0-.02.272c.148.24.3.484.467.727.205.298.526.509.893.587-.042.223-.024.452.051.668 1.993 2.396 4.608 4.074 7.668 4.909l.19.05.16.042c.25.064.515.064.765 0l.161-.042.196-.05c3.235-.883 5.968-2.711 8.002-5.33 1.612-2.076 2.793-4.628 3.553-7.57.67-2.597.887-5.025.954-6.624.071-1.733-.018-2.892-.022-2.943l-.052-.663c-.058-.755-.756-1.32-1.556-1.261l-.647.048a14 14 0 0 1-.954.04c-.205.04-.4.12-.568.239a1.4 1.4 0 0 0-.29-.267q-.25-.016-.489-.042a1.5 1.5 0 0 0-.226.074 1.4 1.4 0 0 0-.12-.118 10.05 10.05 0 0 1-5.829-2.918 11 11 0 0 1-.822-.932l-.507-.647a1.48 1.48 0 0 0-1.164-.552" style="fill:#f2f2f2;stroke-width:.00277504"/><g style="stroke-width:1.16753"><path d="M505.327-7.717a34.1 34.1 0 0 1-10.019 24.054 34.1 34.1 0 0 1-24.188 10.02 35 35 0 0 1-3.048-.134q.568.729 1.184 1.429a36 36 0 0 0 1.864.049c19.553 0 35.47-15.867 35.551-35.402q-.683.005-1.344-.016" style="fill:#2c455a;fill-opacity:1;fill-rule:nonzero;stroke:none;stroke-width:.00675731" transform="matrix(.40494 0 0 .41648 -179.968 12.48)"/><path d="M486.313-15.654a28 28 0 0 1-2.197-2.42 28 28 0 0 1-2.198 2.42c-4.194 4.113-11.476 8.686-22.73 7.856 0 0-1.555 19.495 8.104 32.978-2.392-10.225-8.295-40.436 32.556-33.557-6.204-1.332-10.617-4.416-13.535-7.277" style="fill:#f68712;fill-opacity:1;fill-rule:nonzero;stroke:none;stroke-width:.00675731" transform="matrix(.40494 0 0 .41648 -179.968 12.48)"/><path d="M485.88 27.09a37.7 37.7 0 0 1-14.236 2.977c3.175 2.855 7.143 5.134 12.1 6.448q.185.05.372.097.186-.047.371-.097c27.51-7.293 24.556-44.313 24.556-44.313h-.001a37.7 37.7 0 0 1-2.98 14.708 37.8 37.8 0 0 1-8.127 12.053 37.8 37.8 0 0 1-12.054 8.127" style="fill:#2c3892;fill-opacity:1;fill-rule:nonzero;stroke:none;stroke-width:.00675731" transform="matrix(.40494 0 0 .41648 -179.968 12.48)"/><path d="M456.624-10.013c12.411.914 20.442-4.129 25.068-8.665a31 31 0 0 0 2.424-2.668 31 31 0 0 0 2.423 2.668c3.645 3.574 9.403 7.46 17.75 8.503q-.057-.828-.155-1.645c-7.845-1.077-13.2-4.802-16.469-8.006a30 30 0 0 1-2.297-2.53l-1.252-1.553-1.253 1.553a29 29 0 0 1-2.297 2.529c-3.868 3.793-10.657 8.313-21.038 8.313-.911 0-1.849-.035-2.786-.104l-1.595-.117-.127 1.594c-.009.108-.21 2.696-.038 6.701.157 3.687.675 9.327 2.25 15.26 1.227 4.614 2.908 8.758 5.02 12.378q1.089.301 2.208.53c-9.43-14.76-7.836-34.741-7.836-34.741" style="fill:#f68712;fill-opacity:1;fill-rule:nonzero;stroke:none;stroke-width:.00675731" transform="matrix(.40494 0 0 .41648 -179.968 12.48)"/><path d="M465.204 25.848a34 34 0 0 1-2.234-.467q.52.825 1.07 1.611 1.128.23 2.28.385a35 35 0 0 1-1.116-1.529" style="fill:#2c455a;fill-opacity:1;fill-rule:nonzero;stroke:none;stroke-width:.00675731" transform="matrix(.40494 0 0 .41648 -179.968 12.48)"/><path d="m513.211-10.141-.127-1.594-1.595.117c-.88.065-1.76.1-2.621.103q.075.801.12 1.608 1.275-.008 2.62-.106s3.257 40.828-27.082 48.872l-.41.106-.41-.106c-6.453-1.711-11.386-4.905-15.153-8.873a39 39 0 0 1-2.373-.233c4.496 5.255 10.247 8.84 17.113 10.66q.213.059.428.111l.395.1.394-.1q.215-.053.428-.11c7.26-1.926 13.275-5.822 17.876-11.581 3.644-4.563 6.398-10.287 8.184-17.014 1.576-5.932 2.094-11.572 2.252-15.259.17-4.005-.03-6.593-.039-6.701" style="fill:#2c3892;fill-opacity:1;fill-rule:nonzero;stroke:none;stroke-width:.00675731" transform="matrix(.40494 0 0 .41648 -179.968 12.48)"/><path d="M506.61-9.964a36 36 0 0 0-.133-1.621q-.693-.045-1.362-.116.09.813.142 1.633.665.064 1.352.104" style="fill:#2c455a;fill-opacity:1;fill-rule:nonzero;stroke:none;stroke-width:.00675731" transform="matrix(.40494 0 0 .41648 -179.968 12.48)"/><path d="m484.116-6.026 2.794 8.6h9.043l-7.316 5.316 2.795 8.6-7.316-5.314-7.316 5.315 2.794-8.601-7.316-5.316h9.043z" style="fill:#bf1b2c;fill-opacity:1;fill-rule:nonzero;stroke:none;stroke-width:.00675731" transform="matrix(.40494 0 0 .41648 -179.968 12.48)"/></g></svg>