<svg xmlns="http://www.w3.org/2000/svg" xml:space="preserve" width="32" height="32" viewBox="0 0 32 32"><path d="M11.594 14.791a1.78 1.78 0 0 0-1.643.816L3.104 26.36a1.776 1.776 0 0 0 2.164 2.6l1.91-.771 1.056 2.29a1.776 1.776 0 0 0 3.168.114l4.836-8.76 4.787 8.28a1.776 1.776 0 0 0 3.127-.098l1.057-2.121 1.937.746a1.776 1.776 0 0 0 2.116-2.643l-6.725-10.072a1.78 1.78 0 0 0-1.605-.785l-3.649.265a2 2 0 0 0-.262-.172z" style="fill:#e6e6e6;stroke-width:5;stroke-linecap:round"/><path d="M11.447 16.58 4.6 27.332l3.48-1.406 1.766 3.828L16.2 18.242l6.36 11 1.777-3.568 3.445 1.328L21.06 16.93l-4.305.312.121-.22z" style="fill:maroon;stroke-width:5;stroke-linecap:round"/><path d="M16.387 1.412c-2.667 0-5.313 1.128-7.184 3.047-1.87 1.919-2.949 4.6-2.95 7.293 0 2.694 1.08 5.375 2.95 7.295s4.516 3.047 7.184 3.047c2.667 0 5.313-1.13 7.183-3.05s2.948-4.599 2.948-7.292-1.08-5.374-2.95-7.293-4.515-3.047-7.181-3.047" style="fill:#e6e6e6;stroke-width:5;stroke-linecap:round"/><ellipse cx="16.366" cy="11.837" rx="8.028" ry="8.238" style="fill:#d4aa00;stroke-width:5;stroke-linecap:round"/><path d="m14.396 12.717-3.719-1.896-3.67 1.99.653-4.124-3.025-2.876 4.123-.652 1.8-3.767 1.895 3.72 4.138.548-2.952 2.952z" style="fill:#ffd42a;stroke-width:5;stroke-linecap:round" transform="translate(5.679 4.319)"/></svg>