<svg xmlns="http://www.w3.org/2000/svg" width="32" height="32" viewBox="0 0 32 32"><path d="M15.824.78c-2.978 0-5.399 1.99-6.64 4.554-1.242 2.564-1.412 5.821.11 8.676a7.3 7.3 0 0 0 1.128 1.61l-1.606.976-.043.027c-1.704 1.13-2.745 2.244-3.191 3.62-.446 1.374-.338 2.707-.338 4.534 0 1.436-.123 3.511.022 5.123a1.33 1.33 0 0 0 1.203 1.204c1.598.142 3.503.023 4.916.023.996 0 4.45.025 7.685.027 1.618.002 3.183-.002 4.373-.017a61 61 0 0 0 1.473-.033c.189-.008.347-.014.486-.026.07-.006.133-.013.213-.025s.104.042.469-.143a1.33 1.33 0 0 0 .72-1.058c.153-1.607.022-3.73.022-5.147 0-1.486.255-3.359-.617-5.115-.73-1.47-2-2.404-3.16-3.131a37 37 0 0 0-1.455-.873c.372-.407.763-.802 1.125-1.488.956-1.819 1.111-3.228 1.111-5.08 0-2.376-1.15-4.44-2.23-5.655C20.29 1.89 18.372.78 15.824.78" style="fill:#ccc;fill-opacity:1;fill-rule:evenodd;stroke:none;stroke-width:.00882694"/><path d="M12.583 16.362h6.797v12.454h-6.797z" style="fill:#f9f9f9;fill-opacity:.967532;stroke-width:1.8;stroke-linecap:round;stroke-linejoin:round"/><path d="M12.86 16.644c.307.057.763.318 1.128.446.41.144.863.199 1.223.37-.064.4-.398.565-.168 1.188.322.87 1.421.89 1.804.046.278-.61-.065-.806-.126-1.27.442-.021.885-.176 1.286-.324.392-.146.788-.382 1.135-.477.033.486-.722 3.662-.884 4.363l-.967 4.272c-.205-.385-.312-2.444-.4-3.07-.426-3.007.355-2.373-1.7-2.457-.173.598-.237 2.044-.305 2.744-.04.42-.222 2.535-.301 2.767-.245-.24-.208-.56-.305-1.01l-.635-3.24c-.123-.627-.845-3.95-.784-4.348m6.635-.734c.132-.299 1.2-.86 2.014-2.405.87-1.657.958-2.653.958-4.463 0-1.885-1.045-3.816-1.895-4.773-1.136-1.278-2.582-2.138-4.784-2.138-4.771 0-7.967 6.39-5.359 11.278.272.509.537.946.955 1.377l1.109 1.128-3.023 1.84c-3.187 2.111-2.936 3.332-2.936 7.047 0 1.502-.112 3.576.016 5.006 1.428.127 3.32.019 4.798.019 2.034 0 13.766.094 14.1-.075.133-1.409.015-3.536.015-5.022 0-1.567.146-3.269-.477-4.524-1.089-2.194-4.22-3.3-5.491-4.295" style="fill:#000;fill-opacity:1;fill-rule:evenodd;stroke:none;stroke-width:.00882694"/><ellipse cx="15.958" cy="18.23" rx="1.032" ry="1.11" style="fill:#a00;fill-opacity:.967532;stroke-width:1.8;stroke-linecap:round;stroke-linejoin:round"/><path d="m15.103 19.614 1.664.058s.072 1.285.24 2.73.276 2.865.276 2.865.287-.279-.455 1.09c-.743 1.37-1.03 1.724-1.03 1.724s-.6-1.09-.84-1.673a13 13 0 0 1-.43-1.293z" style="fill:#a00;fill-opacity:.967532;stroke-width:1.8;stroke-linecap:round;stroke-linejoin:round"/></svg>