<svg xmlns="http://www.w3.org/2000/svg" width="32" height="32" viewBox="0 0 32 32"><path d="M12.926 4.564c-1.322 0-2.522 1.062-2.522 2.457v5.817c0 1.395 1.199 2.459 2.522 2.459h.955v.01H5.566a1.52 1.52 0 0 0-1.52 1.52v2.521c-1.14.201-2.132 1.062-2.132 2.302v3.301c0 1.397 1.198 2.457 2.522 2.457H7.96c1.323 0 2.521-1.06 2.521-2.457v-3.3c0-1.062-.767-1.767-1.681-2.122h4.629c-.915.355-1.682 1.06-1.682 2.121v3.301c0 1.397 1.198 2.457 2.522 2.457h3.525c1.323 0 2.521-1.06 2.521-2.457v-3.3c0-1.062-.767-1.767-1.681-2.122h4.627c-.914.356-1.68 1.063-1.68 2.121v3.301c0 1.393 1.196 2.457 2.52 2.457h3.527c1.323 0 2.521-1.06 2.521-2.457v-3.3c0-1.241-.992-2.102-2.132-2.303v-2.522a1.52 1.52 0 0 0-1.52-1.52h-8.314v-.01h.955c1.323 0 2.52-1.067 2.52-2.458V7.02c0-1.392-1.199-2.457-2.52-2.457z" style="fill:#f2f2f2;fill-opacity:1;fill-rule:nonzero;stroke:none;stroke-width:.0333591"/><path d="M12.894 13.79h6.212c.553 0 1.001-.419 1.001-.938V7.035c0-.518-.448-.938-1-.938h-6.213c-.553 0-1.001.42-1.001.938v5.817c0 .519.448.939 1.001.939" style="fill:maroon;fill-opacity:1;fill-rule:nonzero;stroke:none;stroke-width:.0333591"/><path d="M7.93 20.724H4.403c-.553 0-1.001.42-1.001.94v3.302c0 .517.448.937 1.001.937H7.93c.553 0 1-.42 1-.937v-3.303c0-.519-.447-.939-1-.939" style="fill:#a80;fill-opacity:1;fill-rule:nonzero;stroke:none;stroke-width:.0333591"/><path d="M17.763 20.724h-3.526c-.553 0-1.001.42-1.001.94v3.302c0 .517.448.937 1 .937h3.527c.553 0 1.002-.42 1.002-.937v-3.303c0-.519-.449-.939-1.002-.939" style="fill:#3771c8;fill-opacity:1;fill-rule:nonzero;stroke:none;stroke-width:.0333591"/><path d="M27.597 20.724h-3.526c-.553 0-1.002.42-1.002.94v3.302c0 .517.449.937 1.002.937h3.526c.553 0 1.001-.42 1.001-.937v-3.303c0-.519-.448-.939-1-.939" style="fill:#59f;fill-opacity:1;fill-rule:nonzero;stroke:none;stroke-width:.0333591"/><path d="M6.798 18.022h8.57v1.775h1.264v-1.775h8.57v1.775h1.264V16.84h-9.834v-1.777h-1.264v1.777H5.534v2.957h1.264z" style="fill:#501644;fill-opacity:1;fill-rule:nonzero;stroke:none;stroke-width:.0333591"/></svg>