<svg xmlns="http://www.w3.org/2000/svg" width="32" height="32" viewBox="0 0 32 32"><rect width="29.415" height="7.354" x="1.358" y="20.395" ry="1.533" style="fill:#ccc;stroke-width:1.8;stroke-linecap:round;stroke-linejoin:round"/><rect width="26.568" height="18.424" x="2.688" y="4.744" ry="1.661" style="fill:#ccc;stroke-width:1.8;stroke-linecap:round;stroke-linejoin:round"/><path d="M5.577 7.185h20.586v12.706H5.577z" style="fill:#f9f9f9;stroke-width:1.79999;stroke-linecap:round;stroke-linejoin:round"/><g style="fill:#0055d4;stroke-width:1.13827"><path d="M-548.133 810.048c0-.873.331-1.097 1.173-1.106 9.68-.112 19.997.004 29.754.006 2.097 0 3.354-.379 3.354 1.1v17.539c0 .765-.328 1.248-1.034 1.248h-32.195c-.643 0-1.052-.444-1.052-1.12zm38.959 23.258c.336-1.293.142-19.706.142-23.258 0-.698.062-1.75-.043-2.403l-.504-1.272c-.892-1.365-1.912-1.39-3.814-1.39h-32.543c-3.158 0-6.151-.567-6.914 2.335-.273 1.037-.102 19.93-.102 23.32 0 3.19 0 5.035 4.346 5.029h32.545c3.053 0 6.133.527 6.887-2.361m-46.585 6.482c0 2.166 1.556 3.198 3.72 3.198h41.825c1.216 0 2.1-.172 2.855-.726.524-.385 1.132-1.422 1.132-2.472 0-1.6.287-2.78-1.063-2.78h-47.417c-1.337 0-1.052 1.157-1.052 2.78" style="fill:#0055d4;fill-opacity:1;fill-rule:evenodd;stroke:none;stroke-width:.0163488" transform="matrix(.53405 0 0 .52206 299.577 -414.155)"/><path d="M-535.445 813.734c0-1.181 1.121-2.224 2.348-2.224 3.12 0 3.064 4.757 0 4.743-1.284-.006-2.348-.981-2.348-2.52m14.706 1.69c.784-.165 2.022-.312 2.276-1.828.427-2.548-3.128-3.542-4.1-1.276-.71 1.655.648 1.853.073 2.988-.472.933-.913 1.825-1.341 2.732-.92 1.941-.642 1.857-1.99 1.957-.68.05-.541-.244-1.119-.727-.423-.353-1.785-2.016-2.832-2.968.1-.737 1.283-2.373.124-4.36-1.628-2.794-5.475-2.608-6.892.008-1.113 2.058-.06 3.441.09 4.171-.515.618-2.488 2.647-3.13 3.117-.927-.14-1.191-.456-2.225-.115-2.483.814-2.455 3.718-1.069 4.896 1.625 1.382 4.22.701 4.726-1.476.252-1.093-.183-1.36-.141-2.2.505-.51 1.041-.985 1.514-1.516 2.503-2.818.98-.972 3.678-.972.906 0 1.47-.438 2.162-.473.376.303.596.648.95.994l2.592 2.709c-.02 1.109-.576 1.807.321 2.894 1.33 1.613 3.677 1.127 4.362-.622.486-1.242.01-1.949-.518-2.76.188-.753 2.08-4.536 2.489-5.173" style="fill:#0055d4;fill-opacity:1;fill-rule:evenodd;stroke:none;stroke-width:.0163488" transform="matrix(.53405 0 0 .52206 299.577 -414.155)"/></g></svg>